<svg version="1.1" viewBox="0.0 0.0 772.0 512.0" fill="none" stroke="none" stroke-linecap="square" stroke-miterlimit="10" xmlns:xlink="http://www.w3.org/1999/xlink" xmlns="http://www.w3.org/2000/svg"><clipPath id="p.0"><path d="m0 0l772.0 0l0 512.0l-772.0 0l0 -512.0z" clip-rule="nonzero"/></clipPath><g clip-path="url(#p.0)"><path fill="#000000" fill-opacity="0.0" d="m0 0l772.0 0l0 512.0l-772.0 0z" fill-rule="evenodd"/><path fill="#cfe2f3" d="m296.37534 58.0l161.5433 0l0 29.921257l-161.5433 0z" fill-rule="evenodd"/><path stroke="#000000" stroke-width="1.0" stroke-linejoin="round" stroke-linecap="butt" d="m296.37534 58.0l161.5433 0l0 29.921257l-161.5433 0z" fill-rule="evenodd"/><path fill="#000000" d="m344.95947 78.82063l0 -11.453125l1.515625 0l0 10.09375l5.640625 0l0 1.359375l-7.15625 0zm14.1953125 -1.03125q-0.78125 0.671875 -1.5 0.953125q-0.71875 0.265625 -1.546875 0.265625q-1.375 0 -2.109375 -0.671875q-0.734375 -0.671875 -0.734375 -1.703125q0 -0.609375 0.28125 -1.109375q0.28125 -0.515625 0.71875 -0.8125q0.453125 -0.3125 1.015625 -0.46875q0.421875 -0.109375 1.25 -0.203125q1.703125 -0.203125 2.515625 -0.484375q0 -0.296875 0 -0.375q0 -0.859375 -0.390625 -1.203125q-0.546875 -0.484375 -1.609375 -0.484375q-0.984375 0 -1.46875 0.359375q-0.46875 0.34375 -0.6875 1.21875l-1.375 -0.1875q0.1875 -0.875 0.609375 -1.421875q0.4375 -0.546875 1.25 -0.828125q0.8125 -0.296875 1.875 -0.296875q1.0625 0 1.71875 0.25q0.671875 0.25 0.984375 0.625q0.3125 0.375 0.4375 0.953125q0.078125 0.359375 0.078125 1.296875l0 1.875q0 1.96875 0.078125 2.484375q0.09375 0.515625 0.359375 1.0l-1.46875 0q-0.21875 -0.4375 -0.28125 -1.03125zm-0.109375 -3.140625q-0.765625 0.3125 -2.296875 0.53125q-0.875 0.125 -1.234375 0.28125q-0.359375 0.15625 -0.5625 0.46875q-0.1875 0.296875 -0.1875 0.65625q0 0.5625 0.421875 0.9375q0.4375 0.375 1.25 0.375q0.8125 0 1.4375 -0.34375q0.640625 -0.359375 0.9375 -0.984375q0.234375 -0.46875 0.234375 -1.40625l0 -0.515625zm9.0390625 4.171875l0 -1.21875q-0.96875 1.40625 -2.640625 1.40625q-0.734375 0 -1.375 -0.28125q-0.625 -0.28125 -0.9375 -0.703125q-0.3125 -0.4375 -0.4375 -1.046875q-0.078125 -0.421875 -0.078125 -1.3125l0 -5.140625l1.40625 0l0 4.59375q0 1.109375 0.078125 1.484375q0.140625 0.5625 0.5625 0.875q0.4375 0.3125 1.0625 0.3125q0.640625 0 1.1875 -0.3125q0.5625 -0.328125 0.78125 -0.890625q0.234375 -0.5625 0.234375 -1.625l0 -4.4375l1.40625 0l0 8.296875l-1.25 0zm3.4609375 0l0 -8.296875l1.265625 0l0 1.171875q0.90625 -1.359375 2.640625 -1.359375q0.75 0 1.375 0.265625q0.625 0.265625 0.9375 0.703125q0.3125 0.4375 0.4375 1.046875q0.078125 0.390625 0.078125 1.359375l0 5.109375l-1.40625 0l0 -5.046875q0 -0.859375 -0.171875 -1.28125q-0.15625 -0.4375 -0.578125 -0.6875q-0.40625 -0.25 -0.96875 -0.25q-0.90625 0 -1.5625 0.578125q-0.640625 0.5625 -0.640625 2.15625l0 4.53125l-1.40625 0zm14.3046875 -3.046875l1.390625 0.1875q-0.234375 1.421875 -1.171875 2.234375q-0.921875 0.8125 -2.28125 0.8125q-1.703125 0 -2.75 -1.109375q-1.03125 -1.125 -1.03125 -3.203125q0 -1.34375 0.4375 -2.34375q0.453125 -1.015625 1.359375 -1.515625q0.921875 -0.5 1.984375 -0.5q1.359375 0 2.21875 0.6875q0.859375 0.671875 1.09375 1.9375l-1.359375 0.203125q-0.203125 -0.828125 -0.703125 -1.25q-0.484375 -0.421875 -1.1875 -0.421875q-1.0625 0 -1.734375 0.765625q-0.65625 0.75 -0.65625 2.40625q0 1.671875 0.640625 2.4375q0.640625 0.75 1.671875 0.75q0.828125 0 1.375 -0.5q0.5625 -0.515625 0.703125 -1.578125zm2.59375 3.046875l0 -11.453125l1.40625 0l0 4.109375q0.984375 -1.140625 2.484375 -1.140625q0.921875 0 1.59375 0.359375q0.6875 0.359375 0.96875 1.0q0.296875 0.640625 0.296875 1.859375l0 5.265625l-1.40625 0l0 -5.265625q0 -1.046875 -0.453125 -1.53125q-0.453125 -0.484375 -1.296875 -0.484375q-0.625 0 -1.171875 0.328125q-0.546875 0.328125 -0.78125 0.890625q-0.234375 0.546875 -0.234375 1.515625l0 4.546875l-1.40625 0zm14.5703125 -2.671875l1.453125 0.171875q-0.34375 1.28125 -1.28125 1.984375q-0.921875 0.703125 -2.359375 0.703125q-1.828125 0 -2.890625 -1.125q-1.0625 -1.125 -1.0625 -3.140625q0 -2.09375 1.078125 -3.25q1.078125 -1.15625 2.796875 -1.15625q1.65625 0 2.703125 1.140625q1.0625 1.125 1.0625 3.171875q0 0.125 0 0.375l-6.1875 0q0.078125 1.375 0.765625 2.109375q0.703125 0.71875 1.734375 0.71875q0.78125 0 1.328125 -0.40625q0.546875 -0.40625 0.859375 -1.296875zm-4.609375 -2.28125l4.625 0q-0.09375 -1.046875 -0.53125 -1.5625q-0.671875 -0.8125 -1.734375 -0.8125q-0.96875 0 -1.640625 0.65625q-0.65625 0.640625 -0.71875 1.71875zm7.8203125 4.953125l0 -8.296875l1.265625 0l0 1.25q0.484375 -0.875 0.890625 -1.15625q0.40625 -0.28125 0.90625 -0.28125q0.703125 0 1.4375 0.453125l-0.484375 1.296875q-0.515625 -0.296875 -1.03125 -0.296875q-0.453125 0 -0.828125 0.28125q-0.359375 0.265625 -0.515625 0.765625q-0.234375 0.75 -0.234375 1.640625l0 4.34375l-1.40625 0z" fill-rule="nonzero"/><path fill="#000000" fill-opacity="0.0" d="m471.3281 46.401573l166.67715 0l0 50.078743l-166.67715 0z" fill-rule="evenodd"/><path fill="#000000" d="m481.29684 67.56158l0 -9.062504l1.21875 0l4.765625 7.109379l0 -7.109379l1.15625 0l0 9.062504l-1.234375 0l-4.765625 -7.125004l0 7.125004l-1.140625 0zm14.858673 -5.328129l-5.984375 0l0 -1.03125l5.984375 0l0 1.03125zm0 2.7500038l-5.984375 0l0 -1.0312538l5.984375 0l0 1.0312538zm5.8129272 0.171875l1.09375 0.140625q-0.171875 1.140625 -0.921875 1.78125q-0.734375 0.625 -1.796875 0.625q-1.359375 0 -2.171875 -0.875q-0.8125 -0.875 -0.8125 -2.515625q0 -1.0625038 0.34375 -1.8593788q0.359375 -0.8125 1.078125 -1.203125q0.71875 -0.40625 1.5625 -0.40625q1.0625 0 1.75 0.546875q0.6875 0.546875 0.875 1.53125l-1.078125 0.171875q-0.15625 -0.65625 -0.5625 -0.984375q-0.390625 -0.34375 -0.9375 -0.34375q-0.84375 0 -1.375 0.609375q-0.515625 0.59375 -0.515625 1.9062538q0 1.3125 0.5 1.921875q0.515625 0.59375 1.328125 0.59375q0.65625 0 1.09375 -0.390625q0.4375 -0.40625 0.546875 -1.25zm1.640625 -0.875q0 -1.8281288 1.015625 -2.7031288q0.84375 -0.734375 2.0625 -0.734375q1.34375 0 2.203125 0.890625q0.859375 0.890625 0.859375 2.4531288q0 1.265625 -0.375 2.0q-0.375 0.71875 -1.109375 1.125q-0.71875 0.390625 -1.578125 0.390625q-1.375 0 -2.234375 -0.875q-0.84375 -0.890625 -0.84375 -2.546875zm1.140625 0q0 1.265625 0.546875 1.890625q0.546875 0.625 1.390625 0.625q0.828125 0 1.375 -0.625q0.546875 -0.640625 0.546875 -1.921875q0 -1.2187538 -0.5625 -1.8437538q-0.546875 -0.640625 -1.359375 -0.640625q-0.84375 0 -1.390625 0.625q-0.546875 0.625 -0.546875 1.8906288zm6.3044434 3.28125l0 -6.562504l1.0 0l0 0.9375q0.734375 -1.09375 2.09375 -1.09375q0.59375 0 1.09375 0.21875q0.5 0.21875 0.734375 0.5625q0.25 0.34375 0.359375 0.828125q0.0625 0.296875 0.0625 1.078125l0 4.031254l-1.109375 0l0 -3.9843788q0 -0.6875 -0.140625 -1.015625q-0.125 -0.34375 -0.453125 -0.546875q-0.328125 -0.203125 -0.78125 -0.203125q-0.703125 0 -1.21875 0.453125q-0.515625 0.453125 -0.515625 1.71875l0 3.5781288l-1.125 0zm11.320068 -2.40625l1.09375 0.140625q-0.171875 1.140625 -0.921875 1.78125q-0.734375 0.625 -1.796875 0.625q-1.359375 0 -2.171875 -0.875q-0.8125 -0.875 -0.8125 -2.515625q0 -1.0625038 0.34375 -1.8593788q0.359375 -0.8125 1.078125 -1.203125q0.71875 -0.40625 1.5625 -0.40625q1.0625 0 1.75 0.546875q0.6875 0.546875 0.875 1.53125l-1.078125 0.171875q-0.15625 -0.65625 -0.5625 -0.984375q-0.390625 -0.34375 -0.9375 -0.34375q-0.84375 0 -1.375 0.609375q-0.515625 0.59375 -0.515625 1.9062538q0 1.3125 0.5 1.921875q0.515625 0.59375 1.328125 0.59375q0.65625 0 1.09375 -0.390625q0.4375 -0.40625 0.546875 -1.25zm6.359375 2.40625l0 -0.96875q-0.765625 1.109375 -2.09375 1.109375q-0.578125 0 -1.078125 -0.21875q-0.5 -0.21875 -0.75 -0.546875q-0.25 -0.34375 -0.34375 -0.828125q-0.0625 -0.328125 -0.0625 -1.046875l0 -4.062504l1.109375 0l0 3.6406288q0 0.875 0.0625 1.171875q0.109375 0.4375 0.453125 0.6875q0.34375 0.25 0.84375 0.25q0.5 0 0.9375 -0.25q0.4375 -0.265625 0.609375 -0.703125q0.1875 -0.4375 0.1875 -1.28125l0 -3.5156288l1.109375 0l0 6.562504l-0.984375 0zm2.7262573 0l0 -6.562504l1.0 0l0 1.0q0.375 -0.703125 0.703125 -0.921875q0.328125 -0.234375 0.71875 -0.234375q0.5625 0 1.140625 0.359375l-0.390625 1.03125q-0.40625 -0.234375 -0.8125 -0.234375q-0.359375 0 -0.65625 0.21875q-0.28125 0.21875 -0.40625 0.609375q-0.1875 0.59375 -0.1875 1.2968788l0 3.4375l-1.109375 0zm4.2146606 0l0 -6.562504l1.0 0l0 1.0q0.375 -0.703125 0.703125 -0.921875q0.328125 -0.234375 0.71875 -0.234375q0.5625 0 1.140625 0.359375l-0.390625 1.03125q-0.40625 -0.234375 -0.8125 -0.234375q-0.359375 0 -0.65625 0.21875q-0.28125 0.21875 -0.40625 0.609375q-0.1875 0.59375 -0.1875 1.2968788l0 3.4375l-1.109375 0zm8.7146 -2.109375l1.140625 0.140625q-0.265625 1.0 -1.0 1.5625q-0.734375 0.546875 -1.875 0.546875q-1.4375 0 -2.28125 -0.875q-0.84375 -0.890625 -0.84375 -2.484375q0 -1.6562538 0.84375 -2.5781288q0.859375 -0.921875 2.21875 -0.921875q1.3125 0 2.140625 0.90625q0.84375 0.890625 0.84375 2.5156288q0 0.109375 -0.015625 0.296875l-4.890625 0q0.0625 1.078125 0.609375 1.65625q0.5625 0.578125 1.375 0.578125q0.609375 0 1.046875 -0.3125q0.4375 -0.328125 0.6875 -1.03125zm-3.65625 -1.7968788l3.671875 0q-0.078125 -0.828125 -0.421875 -1.25q-0.53125 -0.640625 -1.375 -0.640625q-0.765625 0 -1.296875 0.515625q-0.515625 0.515625 -0.578125 1.375zm6.1950684 3.9062538l0 -6.562504l1.0 0l0 0.9375q0.734375 -1.09375 2.09375 -1.09375q0.59375 0 1.09375 0.21875q0.5 0.21875 0.734375 0.5625q0.25 0.34375 0.359375 0.828125q0.0625 0.296875 0.0625 1.078125l0 4.031254l-1.109375 0l0 -3.9843788q0 -0.6875 -0.140625 -1.015625q-0.125 -0.34375 -0.453125 -0.546875q-0.328125 -0.203125 -0.78125 -0.203125q-0.703125 0 -1.21875 0.453125q-0.515625 0.453125 -0.515625 1.71875l0 3.5781288l-1.125 0zm11.320068 -2.40625l1.09375 0.140625q-0.171875 1.140625 -0.921875 1.78125q-0.734375 0.625 -1.796875 0.625q-1.359375 0 -2.171875 -0.875q-0.8125 -0.875 -0.8125 -2.515625q0 -1.0625038 0.34375 -1.8593788q0.359375 -0.8125 1.078125 -1.203125q0.71875 -0.40625 1.5625 -0.40625q1.0625 0 1.75 0.546875q0.6875 0.546875 0.875 1.53125l-1.078125 0.171875q-0.15625 -0.65625 -0.5625 -0.984375q-0.390625 -0.34375 -0.9375 -0.34375q-0.84375 0 -1.375 0.609375q-0.515625 0.59375 -0.515625 1.9062538q0 1.3125 0.5 1.921875q0.515625 0.59375 1.328125 0.59375q0.65625 0 1.09375 -0.390625q0.4375 -0.40625 0.546875 -1.25zm2.0 4.9375l-0.125 -1.046875q0.375 0.09375 0.640625 0.09375q0.375 0 0.59375 -0.125q0.21875 -0.125 0.359375 -0.34375q0.109375 -0.15625 0.34375 -0.828125q0.03125 -0.09375 0.09375 -0.265625l-2.484375 -6.578129l1.203125 0l1.359375 3.7968788q0.265625 0.71875 0.484375 1.53125q0.1875 -0.78125 0.453125 -1.5l1.40625 -3.8281288l1.109375 0l-2.5 6.671879q-0.40625 1.078125 -0.625 1.484375q-0.296875 0.5625 -0.6875 0.8125q-0.375 0.25 -0.90625 0.25q-0.3125 0 -0.71875 -0.125z" fill-rule="nonzero"/><path fill="#000000" d="m481.2656 82.76157l0 -9.0625l1.8125 0l2.140625 6.421875q0.296875 0.890625 0.4375 1.34375q0.140625 -0.5 0.46875 -1.453125l2.171875 -6.3125l1.609375 0l0 9.0625l-1.15625 0l0 -7.578125l-2.625 7.578125l-1.078125 0l-2.625 -7.71875l0 7.71875l-1.15625 0zm16.292755 -5.328125l-5.984375 0l0 -1.03125l5.984375 0l0 1.03125zm0 2.75l-5.984375 0l0 -1.03125l5.984375 0l0 1.03125zm1.5316772 2.578125l0 -6.5625l1.0 0l0 0.9375q0.734375 -1.09375 2.09375 -1.09375q0.59375 0 1.09375 0.21875q0.5 0.21875 0.734375 0.5625q0.25 0.34375 0.359375 0.828125q0.0625 0.296875 0.0625 1.078125l0 4.03125l-1.109375 0l0 -3.984375q0 -0.6875 -0.140625 -1.015625q-0.125 -0.34375 -0.453125 -0.546875q-0.328125 -0.203125 -0.78125 -0.203125q-0.703125 0 -1.21875 0.453125q-0.515625 0.453125 -0.515625 1.71875l0 3.578125l-1.125 0zm11.351288 0l0 -0.96875q-0.765625 1.109375 -2.09375 1.109375q-0.578125 0 -1.078125 -0.21875q-0.5 -0.21875 -0.75 -0.546875q-0.25 -0.34375 -0.34375 -0.828125q-0.0625 -0.328125 -0.0625 -1.046875l0 -4.0625l1.109375 0l0 3.640625q0 0.875 0.0625 1.171875q0.109375 0.4375 0.453125 0.6875q0.34375 0.25 0.84375 0.25q0.5 0 0.9375 -0.25q0.4375 -0.265625 0.609375 -0.703125q0.1875 -0.4375 0.1875 -1.28125l0 -3.515625l1.109375 0l0 6.5625l-0.984375 0zm2.7262878 0l0 -6.5625l1.0 0l0 0.921875q0.3125 -0.484375 0.828125 -0.78125q0.515625 -0.296875 1.15625 -0.296875q0.734375 0 1.203125 0.3125q0.46875 0.296875 0.65625 0.84375q0.78125 -1.15625 2.03125 -1.15625q0.96875 0 1.5 0.546875q0.53125 0.546875 0.53125 1.671875l0 4.5l-1.109375 0l0 -4.140625q0 -0.65625 -0.109375 -0.953125q-0.109375 -0.296875 -0.390625 -0.46875q-0.28125 -0.1875 -0.671875 -0.1875q-0.6875 0 -1.15625 0.46875q-0.453125 0.453125 -0.453125 1.46875l0 3.8125l-1.109375 0l0 -4.265625q0 -0.734375 -0.28125 -1.109375q-0.265625 -0.375 -0.875 -0.375q-0.46875 0 -0.875 0.25q-0.390625 0.25 -0.578125 0.734375q-0.171875 0.46875 -0.171875 1.359375l0 3.40625l-1.125 0zm11.574036 0l-1.03125 0l0 -9.0625l1.109375 0l0 3.234375q0.703125 -0.890625 1.796875 -0.890625q0.609375 0 1.140625 0.25q0.546875 0.25 0.890625 0.6875q0.359375 0.4375 0.546875 1.0625q0.203125 0.625 0.203125 1.34375q0 1.6875 -0.84375 2.609375q-0.828125 0.90625 -1.984375 0.90625q-1.171875 0 -1.828125 -0.96875l0 0.828125zm-0.015625 -3.328125q0 1.171875 0.328125 1.703125q0.515625 0.859375 1.421875 0.859375q0.71875 0 1.25 -0.625q0.53125 -0.640625 0.53125 -1.890625q0 -1.296875 -0.515625 -1.90625q-0.5 -0.609375 -1.21875 -0.609375q-0.734375 0 -1.265625 0.640625q-0.53125 0.625 -0.53125 1.828125zm10.523193 1.21875l1.140625 0.140625q-0.265625 1.0 -1.0 1.5625q-0.734375 0.546875 -1.875 0.546875q-1.4375 0 -2.28125 -0.875q-0.84375 -0.890625 -0.84375 -2.484375q0 -1.65625 0.84375 -2.578125q0.859375 -0.921875 2.21875 -0.921875q1.3125 0 2.140625 0.90625q0.84375 0.890625 0.84375 2.515625q0 0.109375 -0.015625 0.296875l-4.890625 0q0.0625 1.078125 0.609375 1.65625q0.5625 0.578125 1.375 0.578125q0.609375 0 1.046875 -0.3125q0.4375 -0.328125 0.6875 -1.03125zm-3.65625 -1.796875l3.671875 0q-0.078125 -0.828125 -0.421875 -1.25q-0.53125 -0.640625 -1.375 -0.640625q-0.765625 0 -1.296875 0.515625q-0.515625 0.515625 -0.578125 1.375zm6.1950073 3.90625l0 -6.5625l1.0 0l0 1.0q0.375 -0.703125 0.703125 -0.921875q0.328125 -0.234375 0.71875 -0.234375q0.5625 0 1.140625 0.359375l-0.390625 1.03125q-0.40625 -0.234375 -0.8125 -0.234375q-0.359375 0 -0.65625 0.21875q-0.28125 0.21875 -0.40625 0.609375q-0.1875 0.59375 -0.1875 1.296875l0 3.4375l-1.109375 0zm7.324707 -3.28125q0 -1.828125 1.015625 -2.703125q0.84375 -0.734375 2.0625 -0.734375q1.34375 0 2.203125 0.890625q0.859375 0.890625 0.859375 2.453125q0 1.265625 -0.375 2.0q-0.375 0.71875 -1.109375 1.125q-0.71875 0.390625 -1.578125 0.390625q-1.375 0 -2.234375 -0.875q-0.84375 -0.890625 -0.84375 -2.546875zm1.140625 0q0 1.265625 0.546875 1.890625q0.546875 0.625 1.390625 0.625q0.828125 0 1.375 -0.625q0.546875 -0.640625 0.546875 -1.921875q0 -1.21875 -0.5625 -1.84375q-0.546875 -0.640625 -1.359375 -0.640625q-0.84375 0 -1.390625 0.625q-0.546875 0.625 -0.546875 1.890625zm6.5700684 3.28125l0 -5.703125l-0.96875 0l0 -0.859375l0.96875 0l0 -0.703125q0 -0.65625 0.125 -0.984375q0.15625 -0.421875 0.5625 -0.6875q0.40625 -0.28125 1.140625 -0.28125q0.46875 0 1.03125 0.109375l-0.171875 0.984375q-0.34375 -0.0625 -0.640625 -0.0625q-0.515625 0 -0.734375 0.21875q-0.203125 0.203125 -0.203125 0.796875l0 0.609375l1.28125 0l0 0.859375l-1.28125 0l0 5.703125l-1.109375 0zm10.954468 2.515625l0 -3.21875q-0.25 0.375 -0.71875 0.609375q-0.46875 0.234375 -1.0 0.234375q-1.171875 0 -2.015625 -0.921875q-0.84375 -0.9375 -0.84375 -2.5625q0 -0.984375 0.34375 -1.765625q0.34375 -0.796875 1.0 -1.203125q0.65625 -0.40625 1.4375 -0.40625q1.21875 0 1.90625 1.03125l0 -0.875l1.0 0l0 9.078125l-1.109375 0zm-3.421875 -5.8125q0 1.265625 0.53125 1.90625q0.53125 0.625 1.265625 0.625q0.71875 0 1.21875 -0.59375q0.515625 -0.609375 0.515625 -1.84375q0 -1.3125 -0.546875 -1.96875q-0.53125 -0.65625 -1.265625 -0.65625q-0.71875 0 -1.21875 0.609375q-0.5 0.609375 -0.5 1.921875zm10.585693 3.296875l0 -0.96875q-0.765625 1.109375 -2.09375 1.109375q-0.578125 0 -1.078125 -0.21875q-0.5 -0.21875 -0.75 -0.546875q-0.25 -0.34375 -0.34375 -0.828125q-0.0625 -0.328125 -0.0625 -1.046875l0 -4.0625l1.109375 0l0 3.640625q0 0.875 0.0625 1.171875q0.109375 0.4375 0.453125 0.6875q0.34375 0.25 0.84375 0.25q0.5 0 0.9375 -0.25q0.4375 -0.265625 0.609375 -0.703125q0.1875 -0.4375 0.1875 -1.28125l0 -3.515625l1.109375 0l0 6.5625l-0.984375 0zm7.2263184 -2.109375l1.140625 0.140625q-0.265625 1.0 -1.0 1.5625q-0.734375 0.546875 -1.875 0.546875q-1.4375 0 -2.28125 -0.875q-0.84375 -0.890625 -0.84375 -2.484375q0 -1.65625 0.84375 -2.578125q0.859375 -0.921875 2.21875 -0.921875q1.3125 0 2.140625 0.90625q0.84375 0.890625 0.84375 2.515625q0 0.109375 -0.015625 0.296875l-4.890625 0q0.0625 1.078125 0.609375 1.65625q0.5625 0.578125 1.375 0.578125q0.609375 0 1.046875 -0.3125q0.4375 -0.328125 0.6875 -1.03125zm-3.65625 -1.796875l3.671875 0q-0.078125 -0.828125 -0.421875 -1.25q-0.53125 -0.640625 -1.375 -0.640625q-0.765625 0 -1.296875 0.515625q-0.515625 0.515625 -0.578125 1.375zm10.507568 3.90625l0 -0.96875q-0.765625 1.109375 -2.09375 1.109375q-0.578125 0 -1.078125 -0.21875q-0.5 -0.21875 -0.75 -0.546875q-0.25 -0.34375 -0.34375 -0.828125q-0.0625 -0.328125 -0.0625 -1.046875l0 -4.0625l1.109375 0l0 3.640625q0 0.875 0.0625 1.171875q0.109375 0.4375 0.453125 0.6875q0.34375 0.25 0.84375 0.25q0.5 0 0.9375 -0.25q0.4375 -0.265625 0.609375 -0.703125q0.1875 -0.4375 0.1875 -1.28125l0 -3.515625l1.109375 0l0 6.5625l-0.984375 0zm7.2262573 -2.109375l1.140625 0.140625q-0.265625 1.0 -1.0 1.5625q-0.734375 0.546875 -1.875 0.546875q-1.4375 0 -2.28125 -0.875q-0.84375 -0.890625 -0.84375 -2.484375q0 -1.65625 0.84375 -2.578125q0.859375 -0.921875 2.21875 -0.921875q1.3125 0 2.140625 0.90625q0.84375 0.890625 0.84375 2.515625q0 0.109375 -0.015625 0.296875l-4.890625 0q0.0625 1.078125 0.609375 1.65625q0.5625 0.578125 1.375 0.578125q0.609375 0 1.046875 -0.3125q0.4375 -0.328125 0.6875 -1.03125zm-3.65625 -1.796875l3.671875 0q-0.078125 -0.828125 -0.421875 -1.25q-0.53125 -0.640625 -1.375 -0.640625q-0.765625 0 -1.296875 0.515625q-0.515625 0.515625 -0.578125 1.375zm5.7575684 1.953125l1.09375 -0.171875q0.09375 0.65625 0.515625 1.015625q0.421875 0.34375 1.1875 0.34375q0.765625 0 1.140625 -0.3125q0.375 -0.3125 0.375 -0.734375q0 -0.375 -0.328125 -0.59375q-0.234375 -0.140625 -1.140625 -0.375q-1.21875 -0.3125 -1.703125 -0.53125q-0.46875 -0.234375 -0.71875 -0.625q-0.234375 -0.40625 -0.234375 -0.875q0 -0.453125 0.1875 -0.8125q0.203125 -0.375 0.5625 -0.625q0.25 -0.203125 0.703125 -0.328125q0.453125 -0.140625 0.953125 -0.140625q0.78125 0 1.359375 0.234375q0.59375 0.21875 0.859375 0.609375q0.28125 0.375 0.390625 1.0l-1.09375 0.15625q-0.0625 -0.515625 -0.421875 -0.796875q-0.359375 -0.28125 -1.0 -0.28125q-0.765625 0 -1.09375 0.25q-0.328125 0.25 -0.328125 0.59375q0 0.21875 0.125 0.390625q0.140625 0.1875 0.4375 0.296875q0.15625 0.0625 0.96875 0.28125q1.1875 0.3125 1.65625 0.515625q0.46875 0.203125 0.734375 0.59375q0.265625 0.375 0.265625 0.953125q0 0.546875 -0.328125 1.046875q-0.328125 0.484375 -0.9375 0.75q-0.609375 0.265625 -1.390625 0.265625q-1.265625 0 -1.9375 -0.53125q-0.671875 -0.53125 -0.859375 -1.5625z" fill-rule="nonzero"/><path fill="#000000" fill-opacity="0.0" d="m437.47507 281.04462l198.64566 0l0 34.740173l-198.64566 0z" fill-rule="evenodd"/><path fill="#000000" d="m452.75632 299.78275q0 0.59375 -0.234375 1.046875q-0.21875 0.4375 -0.640625 0.75q-0.40625 0.296875 -1.0 0.46875q-0.59375 0.15625 -1.3125 0.15625l-2.125 0l0 -8.078125l2.3125 0q2.703125 0 2.703125 1.96875q0 0.65625 -0.3125 1.125q-0.3125 0.46875 -1.015625 0.703125q0.328125 0.046875 0.625 0.203125q0.296875 0.140625 0.515625 0.390625q0.21875 0.234375 0.34375 0.5625q0.140625 0.3125 0.140625 0.703125zm-1.4375 -3.546875q0 -0.234375 -0.078125 -0.453125q-0.0625 -0.234375 -0.25 -0.390625q-0.1875 -0.15625 -0.5 -0.25q-0.3125 -0.09375 -0.796875 -0.09375l-1.140625 0l0 2.53125l1.09375 0q0.375 0 0.6875 -0.078125q0.3125 -0.078125 0.53125 -0.234375q0.21875 -0.171875 0.328125 -0.421875q0.125 -0.265625 0.125 -0.609375zm0.265625 3.59375q0 -0.3125 -0.140625 -0.5625q-0.125 -0.25 -0.375 -0.40625q-0.234375 -0.171875 -0.59375 -0.265625q-0.359375 -0.09375 -0.796875 -0.09375l-1.125 0l0 2.78125l1.15625 0q0.953125 0 1.40625 -0.34375q0.46875 -0.359375 0.46875 -1.109375zm7.9428406 2.375l-4.65625 0l0 -8.078125l1.125 0l0 7.140625l3.53125 0l0 0.9375zm7.5209656 0l-1.078125 0l-0.15625 -5.03125l-0.0625 -1.9375l-0.390625 1.125l-1.1875 3.21875l-0.765625 0l-1.125 -3.09375l-0.375 -1.25l-0.03125 2.015625l-0.140625 4.953125l-1.046875 0l0.40625 -8.078125l1.296875 0l1.09375 3.046875l0.34375 1.015625l0.34375 -1.015625l1.140625 -3.046875l1.34375 0l0.390625 8.078125zm6.9272156 -4.09375q0 1.09375 -0.265625 1.890625q-0.25 0.78125 -0.6875 1.296875q-0.4375 0.515625 -1.03125 0.765625q-0.578125 0.25 -1.21875 0.25q-0.78125 0 -1.359375 -0.28125q-0.578125 -0.28125 -0.96875 -0.8125q-0.375 -0.53125 -0.5625 -1.296875q-0.171875 -0.765625 -0.171875 -1.71875q0 -1.078125 0.25 -1.859375q0.25 -0.796875 0.6875 -1.3125q0.4375 -0.515625 1.015625 -0.765625q0.578125 -0.25 1.234375 -0.25q0.765625 0 1.34375 0.28125q0.578125 0.28125 0.953125 0.8125q0.390625 0.53125 0.578125 1.296875q0.203125 0.75 0.203125 1.703125zm-1.15625 0.078125q0 -0.703125 -0.109375 -1.296875q-0.09375 -0.59375 -0.34375 -1.015625q-0.234375 -0.421875 -0.625 -0.65625q-0.375 -0.234375 -0.90625 -0.234375q-0.53125 0 -0.90625 0.25q-0.359375 0.25 -0.609375 0.6875q-0.234375 0.421875 -0.359375 1.0q-0.109375 0.578125 -0.109375 1.21875q0 0.71875 0.109375 1.3125q0.109375 0.59375 0.34375 1.015625q0.234375 0.421875 0.609375 0.65625q0.390625 0.234375 0.921875 0.234375q0.515625 0 0.890625 -0.25q0.375 -0.25 0.609375 -0.671875q0.25 -0.4375 0.359375 -1.015625q0.125 -0.578125 0.125 -1.234375zm8.427216 -4.0625l-2.75 8.078125l-1.484375 0l-2.671875 -8.078125l1.234375 0l1.75 5.453125l0.484375 1.59375l0.515625 -1.59375l1.75 -5.453125l1.171875 0zm5.8490906 8.078125l-4.59375 0l0 -8.078125l4.59375 0l0 0.921875l-3.484375 0l0 2.515625l3.359375 0l0 0.921875l-3.359375 0l0 2.78125l3.484375 0l0 0.9375zm8.760681 -2.96875q0 -0.671875 0.171875 -1.265625q0.1875 -0.609375 0.546875 -1.0625q0.375 -0.453125 0.9375 -0.71875q0.578125 -0.265625 1.375 -0.265625q0.3125 0 0.625 0.046875q0.3125 0.046875 0.65625 0.15625l0.953125 -0.234375l0 8.84375l-1.078125 0l0 -2.34375l0.046875 -1.328125q-0.875 1.25 -2.078125 1.25q-0.546875 0 -0.953125 -0.21875q-0.390625 -0.21875 -0.671875 -0.625q-0.265625 -0.421875 -0.40625 -0.984375q-0.125 -0.5625 -0.125 -1.25zm1.109375 -0.078125q0 0.53125 0.0625 0.953125q0.078125 0.40625 0.234375 0.6875q0.171875 0.28125 0.40625 0.4375q0.234375 0.15625 0.5625 0.15625q0.40625 0 0.859375 -0.359375q0.453125 -0.359375 0.953125 -1.078125l0 -2.890625q-0.25 -0.109375 -0.5625 -0.1875q-0.3125 -0.078125 -0.65625 -0.078125q-0.921875 0 -1.390625 0.609375q-0.46875 0.59375 -0.46875 1.75zm10.583466 3.046875l0 -4.453125q0 -0.296875 -0.015625 -0.46875q-0.015625 -0.1875 -0.0625 -0.296875q-0.046875 -0.109375 -0.125 -0.15625q-0.0625 -0.046875 -0.171875 -0.046875q-0.125 0 -0.234375 0.078125q-0.09375 0.078125 -0.21875 0.25q-0.125 0.15625 -0.265625 0.4375q-0.140625 0.265625 -0.34375 0.671875l0 3.984375l-0.984375 0l0 -4.34375q0 -0.328125 -0.03125 -0.53125q-0.015625 -0.21875 -0.0625 -0.328125q-0.046875 -0.125 -0.125 -0.171875q-0.0625 -0.046875 -0.171875 -0.046875q-0.109375 0 -0.21875 0.0625q-0.09375 0.0625 -0.21875 0.234375q-0.109375 0.15625 -0.265625 0.4375q-0.140625 0.265625 -0.34375 0.703125l0 3.984375l-0.984375 0l0 -6.203125l0.8125 0l0.046875 1.171875q0.171875 -0.34375 0.3125 -0.59375q0.15625 -0.25 0.3125 -0.390625q0.171875 -0.15625 0.34375 -0.21875q0.1875 -0.078125 0.40625 -0.078125q0.5 0 0.75 0.328125q0.265625 0.328125 0.265625 1.015625q0.15625 -0.328125 0.296875 -0.578125q0.140625 -0.25 0.296875 -0.421875q0.171875 -0.171875 0.359375 -0.25q0.203125 -0.09375 0.46875 -0.09375q1.171875 0 1.171875 1.796875l0 4.515625l-1.0 0zm9.182526 -2.96875q0 -0.671875 0.171875 -1.265625q0.1875 -0.609375 0.546875 -1.0625q0.375 -0.453125 0.9375 -0.71875q0.578125 -0.265625 1.375 -0.265625q0.3125 0 0.625 0.046875q0.3125 0.046875 0.65625 0.15625l0.953125 -0.234375l0 8.84375l-1.078125 0l0 -2.34375l0.046875 -1.328125q-0.875 1.25 -2.078125 1.25q-0.546875 0 -0.953125 -0.21875q-0.390625 -0.21875 -0.671875 -0.625q-0.265625 -0.421875 -0.40625 -0.984375q-0.125 -0.5625 -0.125 -1.25zm1.109375 -0.078125q0 0.53125 0.0625 0.953125q0.078125 0.40625 0.234375 0.6875q0.171875 0.28125 0.40625 0.4375q0.234375 0.15625 0.5625 0.15625q0.40625 0 0.859375 -0.359375q0.453125 -0.359375 0.953125 -1.078125l0 -2.890625q-0.25 -0.109375 -0.5625 -0.1875q-0.3125 -0.078125 -0.65625 -0.078125q-0.921875 0 -1.390625 0.609375q-0.46875 0.59375 -0.46875 1.75zm12.130371 5.578125l-6.953125 0l0 -0.890625l6.953125 0l0 0.890625zm5.41156 -2.53125l0 -4.453125q0 -0.296875 -0.015625 -0.46875q-0.015625 -0.1875 -0.0625 -0.296875q-0.046875 -0.109375 -0.125 -0.15625q-0.0625 -0.046875 -0.171875 -0.046875q-0.125 0 -0.234375 0.078125q-0.09375 0.078125 -0.21875 0.25q-0.125 0.15625 -0.265625 0.4375q-0.140625 0.265625 -0.34375 0.671875l0 3.984375l-0.984375 0l0 -4.34375q0 -0.328125 -0.03125 -0.53125q-0.015625 -0.21875 -0.0625 -0.328125q-0.046875 -0.125 -0.125 -0.171875q-0.0625 -0.046875 -0.171875 -0.046875q-0.109375 0 -0.21875 0.0625q-0.09375 0.0625 -0.21875 0.234375q-0.109375 0.15625 -0.265625 0.4375q-0.140625 0.265625 -0.34375 0.703125l0 3.984375l-0.984375 0l0 -6.203125l0.8125 0l0.046875 1.171875q0.171875 -0.34375 0.3125 -0.59375q0.15625 -0.25 0.3125 -0.390625q0.171875 -0.15625 0.34375 -0.21875q0.1875 -0.078125 0.40625 -0.078125q0.5 0 0.75 0.328125q0.265625 0.328125 0.265625 1.015625q0.15625 -0.328125 0.296875 -0.578125q0.140625 -0.25 0.296875 -0.421875q0.171875 -0.171875 0.359375 -0.25q0.203125 -0.09375 0.46875 -0.09375q1.171875 0 1.171875 1.796875l0 4.515625l-1.0 0zm8.505371 2.53125l-6.953125 0l0 -0.890625l6.953125 0l0 0.890625zm3.114685 -7.84375l-1.84375 0l0 -0.890625l2.921875 0l0 5.3125l1.84375 0l0 0.890625l-4.96875 0l0 -0.890625l2.046875 0l0 -4.421875zm0.375 -3.5q0.171875 0 0.328125 0.078125q0.15625 0.0625 0.265625 0.1875q0.125 0.109375 0.1875 0.265625q0.0625 0.140625 0.0625 0.328125q0 0.171875 -0.0625 0.328125q-0.0625 0.140625 -0.1875 0.265625q-0.109375 0.109375 -0.265625 0.1875q-0.15625 0.0625 -0.328125 0.0625q-0.1875 0 -0.34375 -0.0625q-0.15625 -0.078125 -0.265625 -0.1875q-0.109375 -0.125 -0.1875 -0.265625q-0.0625 -0.15625 -0.0625 -0.328125q0 -0.1875 0.0625 -0.328125q0.078125 -0.15625 0.1875 -0.265625q0.109375 -0.125 0.265625 -0.1875q0.15625 -0.078125 0.34375 -0.078125zm4.458496 2.609375l0.96875 0l0.03125 1.0q0.28125 -0.328125 0.53125 -0.53125q0.25 -0.21875 0.484375 -0.34375q0.25 -0.125 0.5 -0.171875q0.265625 -0.0625 0.53125 -0.0625q0.96875 0 1.453125 0.5625q0.484375 0.5625 0.484375 1.703125l0 4.046875l-1.0625 0l0 -3.96875q0 -0.71875 -0.28125 -1.0625q-0.265625 -0.359375 -0.8125 -0.359375q-0.1875 0 -0.375 0.0625q-0.1875 0.0625 -0.390625 0.203125q-0.203125 0.140625 -0.453125 0.390625q-0.234375 0.25 -0.53125 0.625l0 4.109375l-1.078125 0l0 -6.203125zm12.927185 8.734375l-6.953125 0l0 -0.890625l6.953125 0l0 0.890625zm6.302246 -5.75q0 0.828125 -0.234375 1.453125q-0.234375 0.609375 -0.640625 1.03125q-0.40625 0.40625 -0.96875 0.609375q-0.546875 0.203125 -1.203125 0.203125q-0.296875 0 -0.59375 -0.03125q-0.296875 -0.03125 -0.59375 -0.109375l0 2.59375l-1.078125 0l0 -8.734375l0.96875 0l0.0625 1.03125q0.46875 -0.625 0.984375 -0.875q0.53125 -0.265625 1.140625 -0.265625q0.53125 0 0.921875 0.21875q0.40625 0.21875 0.671875 0.625q0.28125 0.40625 0.421875 0.984375q0.140625 0.5625 0.140625 1.265625zm-1.109375 0.046875q0 -0.484375 -0.078125 -0.890625q-0.0625 -0.40625 -0.21875 -0.6875q-0.15625 -0.296875 -0.390625 -0.453125q-0.234375 -0.171875 -0.578125 -0.171875q-0.203125 0 -0.421875 0.0625q-0.203125 0.0625 -0.4375 0.21875q-0.21875 0.15625 -0.46875 0.40625q-0.25 0.25 -0.53125 0.609375l0 3.015625q0.296875 0.125 0.625 0.203125q0.328125 0.0625 0.640625 0.0625q0.875 0 1.359375 -0.59375q0.5 -0.59375 0.5 -1.78125zm3.00531 -3.03125l0.984375 0l0.03125 1.140625q0.5625 -0.65625 1.09375 -0.953125q0.53125 -0.296875 1.078125 -0.296875q0.953125 0 1.453125 0.625q0.5 0.625 0.46875 1.84375l-1.09375 0q0.015625 -0.8125 -0.234375 -1.171875q-0.25 -0.375 -0.75 -0.375q-0.21875 0 -0.4375 0.078125q-0.21875 0.078125 -0.453125 0.25q-0.234375 0.171875 -0.5 0.4375q-0.25 0.265625 -0.546875 0.640625l0 3.984375l-1.09375 0l0 -6.203125zm12.114746 3.046875q0 0.734375 -0.203125 1.34375q-0.203125 0.59375 -0.59375 1.03125q-0.375 0.421875 -0.9375 0.65625q-0.546875 0.234375 -1.234375 0.234375q-0.671875 0 -1.203125 -0.203125q-0.53125 -0.203125 -0.90625 -0.609375q-0.359375 -0.40625 -0.5625 -1.0q-0.1875 -0.59375 -0.1875 -1.359375q0 -0.71875 0.203125 -1.3125q0.203125 -0.609375 0.59375 -1.03125q0.390625 -0.4375 0.9375 -0.671875q0.546875 -0.234375 1.25 -0.234375q0.65625 0 1.1875 0.203125q0.53125 0.203125 0.890625 0.609375q0.375 0.390625 0.5625 0.984375q0.203125 0.59375 0.203125 1.359375zm-1.09375 0.046875q0 -0.5625 -0.140625 -0.984375q-0.125 -0.4375 -0.359375 -0.71875q-0.234375 -0.296875 -0.578125 -0.4375q-0.328125 -0.15625 -0.734375 -0.15625q-0.484375 0 -0.828125 0.1875q-0.34375 0.1875 -0.5625 0.515625q-0.21875 0.3125 -0.328125 0.734375q-0.09375 0.40625 -0.09375 0.859375q0 0.578125 0.125 1.015625q0.125 0.4375 0.359375 0.71875q0.234375 0.28125 0.5625 0.4375q0.34375 0.140625 0.765625 0.140625q0.484375 0 0.8125 -0.1875q0.34375 -0.1875 0.5625 -0.5q0.234375 -0.3125 0.328125 -0.734375q0.109375 -0.421875 0.109375 -0.890625zm7.114685 -2.21875q0.171875 0.21875 0.265625 0.515625q0.109375 0.28125 0.109375 0.609375q0 0.484375 -0.1875 0.890625q-0.171875 0.390625 -0.5 0.671875q-0.3125 0.28125 -0.765625 0.4375q-0.4375 0.15625 -0.984375 0.15625q-0.390625 0 -0.734375 -0.078125q-0.328125 -0.078125 -0.53125 -0.203125q-0.109375 0.171875 -0.203125 0.328125q-0.078125 0.15625 -0.078125 0.34375q0 0.234375 0.21875 0.390625q0.234375 0.15625 0.609375 0.171875l1.625 0.0625q0.46875 0 0.859375 0.109375q0.390625 0.109375 0.671875 0.3125q0.28125 0.1875 0.4375 0.484375q0.15625 0.28125 0.15625 0.671875q0 0.40625 -0.1875 0.78125q-0.171875 0.375 -0.546875 0.65625q-0.359375 0.28125 -0.9375 0.4375q-0.578125 0.171875 -1.375 0.171875q-0.75 0 -1.28125 -0.125q-0.53125 -0.109375 -0.875 -0.328125q-0.328125 -0.21875 -0.484375 -0.515625q-0.15625 -0.28125 -0.15625 -0.640625q0 -0.453125 0.203125 -0.796875q0.21875 -0.328125 0.65625 -0.640625q-0.15625 -0.078125 -0.28125 -0.1875q-0.109375 -0.109375 -0.1875 -0.234375q-0.078125 -0.140625 -0.109375 -0.28125q-0.03125 -0.15625 -0.03125 -0.296875q0 -0.40625 0.1875 -0.734375q0.1875 -0.34375 0.4375 -0.640625q-0.109375 -0.140625 -0.203125 -0.265625q-0.09375 -0.140625 -0.15625 -0.296875q-0.0625 -0.15625 -0.09375 -0.34375q-0.03125 -0.1875 -0.03125 -0.421875q0 -0.484375 0.171875 -0.875q0.171875 -0.40625 0.484375 -0.6875q0.328125 -0.28125 0.765625 -0.4375q0.453125 -0.15625 1.0 -0.15625q0.234375 0 0.4375 0.03125q0.21875 0.03125 0.375 0.078125l2.25 0l0 0.875l-1.0 0zm-3.734375 6.21875q0 0.4375 0.453125 0.640625q0.46875 0.203125 1.28125 0.203125q0.515625 0 0.859375 -0.09375q0.359375 -0.09375 0.5625 -0.25q0.21875 -0.140625 0.3125 -0.34375q0.09375 -0.1875 0.09375 -0.390625q0 -0.375 -0.3125 -0.5625q-0.3125 -0.171875 -0.953125 -0.203125l-1.609375 -0.0625q-0.203125 0.140625 -0.34375 0.265625q-0.125 0.140625 -0.203125 0.265625q-0.078125 0.140625 -0.109375 0.265625q-0.03125 0.140625 -0.03125 0.265625zm0.328125 -5.0625q0 0.296875 0.09375 0.546875q0.109375 0.234375 0.28125 0.40625q0.1875 0.171875 0.421875 0.28125q0.25 0.09375 0.546875 0.09375q0.328125 0 0.578125 -0.109375q0.25 -0.109375 0.40625 -0.296875q0.171875 -0.1875 0.265625 -0.421875q0.09375 -0.25 0.09375 -0.5q0 -0.296875 -0.109375 -0.546875q-0.09375 -0.25 -0.28125 -0.421875q-0.171875 -0.171875 -0.421875 -0.265625q-0.234375 -0.09375 -0.53125 -0.09375q-0.3125 0 -0.5625 0.109375q-0.25 0.109375 -0.421875 0.296875q-0.171875 0.171875 -0.265625 0.421875q-0.09375 0.234375 -0.09375 0.5zm6.145996 -2.03125l0.984375 0l0.03125 1.140625q0.5625 -0.65625 1.09375 -0.953125q0.53125 -0.296875 1.078125 -0.296875q0.953125 0 1.453125 0.625q0.5 0.625 0.46875 1.84375l-1.09375 0q0.015625 -0.8125 -0.234375 -1.171875q-0.25 -0.375 -0.75 -0.375q-0.21875 0 -0.4375 0.078125q-0.21875 0.078125 -0.453125 0.25q-0.234375 0.171875 -0.5 0.4375q-0.25 0.265625 -0.546875 0.640625l0 3.984375l-1.09375 0l0 -6.203125zm11.958435 2.765625q0 0.234375 -0.015625 0.390625q0 0.15625 -0.015625 0.296875l-4.359375 0q0 0.953125 0.53125 1.46875q0.53125 0.5 1.53125 0.5q0.28125 0 0.546875 -0.015625q0.28125 -0.03125 0.53125 -0.0625q0.25 -0.046875 0.484375 -0.09375q0.234375 -0.046875 0.421875 -0.09375l0 0.875q-0.4375 0.125 -1.0 0.203125q-0.546875 0.078125 -1.140625 0.078125q-0.796875 0 -1.375 -0.21875q-0.5625 -0.21875 -0.9375 -0.625q-0.359375 -0.40625 -0.546875 -1.0q-0.171875 -0.609375 -0.171875 -1.359375q0 -0.65625 0.1875 -1.234375q0.1875 -0.578125 0.546875 -1.015625q0.375 -0.453125 0.890625 -0.703125q0.53125 -0.265625 1.203125 -0.265625q0.640625 0 1.140625 0.203125q0.5 0.203125 0.84375 0.578125q0.34375 0.375 0.515625 0.90625q0.1875 0.53125 0.1875 1.1875zm-1.125 -0.140625q0.015625 -0.421875 -0.078125 -0.765625q-0.09375 -0.34375 -0.3125 -0.578125q-0.203125 -0.25 -0.515625 -0.390625q-0.296875 -0.140625 -0.71875 -0.140625q-0.34375 0 -0.640625 0.140625q-0.28125 0.125 -0.5 0.375q-0.203125 0.25 -0.34375 0.59375q-0.125 0.34375 -0.15625 0.765625l3.265625 0zm7.755371 1.890625q0 0.328125 -0.125 0.59375q-0.109375 0.25 -0.296875 0.453125q-0.1875 0.203125 -0.4375 0.34375q-0.25 0.140625 -0.546875 0.234375q-0.28125 0.09375 -0.59375 0.125q-0.296875 0.046875 -0.59375 0.046875q-0.625 0 -1.15625 -0.0625q-0.53125 -0.046875 -1.03125 -0.171875l0 -0.984375q0.546875 0.15625 1.078125 0.234375q0.546875 0.078125 1.078125 0.078125q0.765625 0 1.140625 -0.203125q0.375 -0.21875 0.375 -0.609375q0 -0.171875 -0.0625 -0.296875q-0.0625 -0.140625 -0.21875 -0.25q-0.15625 -0.125 -0.484375 -0.25q-0.3125 -0.140625 -0.875 -0.296875q-0.421875 -0.125 -0.78125 -0.28125q-0.359375 -0.15625 -0.625 -0.375q-0.25 -0.21875 -0.40625 -0.5q-0.140625 -0.296875 -0.140625 -0.6875q0 -0.265625 0.125 -0.578125q0.125 -0.3125 0.40625 -0.578125q0.296875 -0.265625 0.78125 -0.4375q0.5 -0.171875 1.234375 -0.171875q0.375 0 0.8125 0.046875q0.453125 0.03125 0.9375 0.125l0 0.96875q-0.515625 -0.125 -0.96875 -0.1875q-0.453125 -0.0625 -0.78125 -0.0625q-0.40625 0 -0.6875 0.0625q-0.265625 0.0625 -0.4375 0.171875q-0.171875 0.109375 -0.25 0.25q-0.0625 0.140625 -0.0625 0.3125q0 0.171875 0.0625 0.3125q0.0625 0.125 0.234375 0.25q0.171875 0.125 0.484375 0.265625q0.328125 0.125 0.828125 0.265625q0.546875 0.15625 0.921875 0.34375q0.390625 0.171875 0.625 0.390625q0.234375 0.21875 0.328125 0.484375q0.109375 0.265625 0.109375 0.625zm6.958435 0q0 0.328125 -0.125 0.59375q-0.109375 0.25 -0.296875 0.453125q-0.1875 0.203125 -0.4375 0.34375q-0.25 0.140625 -0.546875 0.234375q-0.28125 0.09375 -0.59375 0.125q-0.296875 0.046875 -0.59375 0.046875q-0.625 0 -1.15625 -0.0625q-0.53125 -0.046875 -1.03125 -0.171875l0 -0.984375q0.546875 0.15625 1.078125 0.234375q0.546875 0.078125 1.078125 0.078125q0.765625 0 1.140625 -0.203125q0.375 -0.21875 0.375 -0.609375q0 -0.171875 -0.0625 -0.296875q-0.0625 -0.140625 -0.21875 -0.25q-0.15625 -0.125 -0.484375 -0.25q-0.3125 -0.140625 -0.875 -0.296875q-0.421875 -0.125 -0.78125 -0.28125q-0.359375 -0.15625 -0.625 -0.375q-0.25 -0.21875 -0.40625 -0.5q-0.140625 -0.296875 -0.140625 -0.6875q0 -0.265625 0.125 -0.578125q0.125 -0.3125 0.40625 -0.578125q0.296875 -0.265625 0.78125 -0.4375q0.5 -0.171875 1.234375 -0.171875q0.375 0 0.8125 0.046875q0.453125 0.03125 0.9375 0.125l0 0.96875q-0.515625 -0.125 -0.96875 -0.1875q-0.453125 -0.0625 -0.78125 -0.0625q-0.40625 0 -0.6875 0.0625q-0.265625 0.0625 -0.4375 0.171875q-0.171875 0.109375 -0.25 0.25q-0.0625 0.140625 -0.0625 0.3125q0 0.171875 0.0625 0.3125q0.0625 0.125 0.234375 0.25q0.171875 0.125 0.484375 0.265625q0.328125 0.125 0.828125 0.265625q0.546875 0.15625 0.921875 0.34375q0.390625 0.171875 0.625 0.390625q0.234375 0.21875 0.328125 0.484375q0.109375 0.265625 0.109375 0.625z" fill-rule="nonzero"/><path fill="#cfe2f3" d="m64.27559 175.68767l108.409454 0l0 47.87401l-108.409454 0z" fill-rule="evenodd"/><path stroke="#000000" stroke-width="1.0" stroke-linejoin="round" stroke-linecap="butt" d="m64.27559 175.68767l108.409454 0l0 47.87401l-108.409454 0z" fill-rule="evenodd"/><path fill="#000000" d="m81.41 205.48468l-3.03125 -11.453125l1.546875 0l1.75 7.5q0.28125 1.1875 0.484375 2.34375q0.4375 -1.828125 0.515625 -2.109375l2.171875 -7.734375l1.828125 0l1.640625 5.796875q0.625 2.15625 0.890625 4.046875q0.21875 -1.078125 0.578125 -2.484375l1.796875 -7.359375l1.515625 0l-3.140625 11.453125l-1.453125 0l-2.421875 -8.734375q-0.296875 -1.09375 -0.359375 -1.34375q-0.171875 0.796875 -0.328125 1.34375l-2.4375 8.734375l-1.546875 0zm12.109375 -4.15625q0 -2.296875 1.28125 -3.40625q1.078125 -0.921875 2.609375 -0.921875q1.71875 0 2.796875 1.125q1.09375 1.109375 1.09375 3.09375q0 1.59375 -0.484375 2.515625q-0.484375 0.921875 -1.40625 1.4375q-0.90625 0.5 -2.0 0.5q-1.734375 0 -2.8125 -1.109375q-1.078125 -1.125 -1.078125 -3.234375zm1.453125 0q0 1.59375 0.6875 2.390625q0.703125 0.796875 1.75 0.796875q1.046875 0 1.734375 -0.796875q0.703125 -0.796875 0.703125 -2.4375q0 -1.53125 -0.703125 -2.328125q-0.6875 -0.796875 -1.734375 -0.796875q-1.046875 0 -1.75 0.796875q-0.6875 0.78125 -0.6875 2.375zm7.9609375 4.15625l0 -8.296875l1.265625 0l0 1.25q0.484375 -0.875 0.890625 -1.15625q0.40625 -0.28125 0.90625 -0.28125q0.703125 0 1.4375 0.453125l-0.484375 1.296875q-0.515625 -0.296875 -1.03125 -0.296875q-0.453125 0 -0.828125 0.28125q-0.359375 0.265625 -0.515625 0.765625q-0.234375 0.75 -0.234375 1.640625l0 4.34375l-1.40625 0zm5.34375 0l0 -11.453125l1.40625 0l0 6.53125l3.328125 -3.375l1.828125 0l-3.171875 3.078125l3.484375 5.21875l-1.734375 0l-2.734375 -4.25l-1.0 0.953125l0 3.296875l-1.40625 0zm13.671875 -2.671875l1.453125 0.171875q-0.34375 1.28125 -1.28125 1.984375q-0.921875 0.703125 -2.359375 0.703125q-1.828125 0 -2.890625 -1.125q-1.0625 -1.125 -1.0625 -3.140625q0 -2.09375 1.078125 -3.25q1.078125 -1.15625 2.796875 -1.15625q1.65625 0 2.703125 1.140625q1.0625 1.125 1.0625 3.171875q0 0.125 0 0.375l-6.1875 0q0.078125 1.375 0.765625 2.109375q0.703125 0.71875 1.734375 0.71875q0.78125 0 1.328125 -0.40625q0.546875 -0.40625 0.859375 -1.296875zm-4.609375 -2.28125l4.625 0q-0.09375 -1.046875 -0.53125 -1.5625q-0.671875 -0.8125 -1.734375 -0.8125q-0.96875 0 -1.640625 0.65625q-0.65625 0.640625 -0.71875 1.71875zm7.8203125 4.953125l0 -8.296875l1.265625 0l0 1.25q0.484375 -0.875 0.890625 -1.15625q0.40625 -0.28125 0.90625 -0.28125q0.703125 0 1.4375 0.453125l-0.484375 1.296875q-0.515625 -0.296875 -1.03125 -0.296875q-0.453125 0 -0.828125 0.28125q-0.359375 0.265625 -0.515625 0.765625q-0.234375 0.75 -0.234375 1.640625l0 4.34375l-1.40625 0zm4.953125 -5.65625q0 -2.03125 0.40625 -3.265625q0.421875 -1.234375 1.25 -1.90625q0.828125 -0.671875 2.078125 -0.671875q0.921875 0 1.609375 0.375q0.703125 0.359375 1.15625 1.0625q0.453125 0.703125 0.703125 1.703125q0.265625 1.0 0.265625 2.703125q0 2.015625 -0.421875 3.265625q-0.40625 1.234375 -1.234375 1.921875q-0.828125 0.671875 -2.078125 0.671875q-1.65625 0 -2.609375 -1.203125q-1.125 -1.421875 -1.125 -4.65625zm1.4375 0q0 2.828125 0.65625 3.765625q0.671875 0.921875 1.640625 0.921875q0.96875 0 1.625 -0.9375q0.65625 -0.9375 0.65625 -3.75q0 -2.828125 -0.65625 -3.75q-0.65625 -0.9375 -1.640625 -0.9375q-0.96875 0 -1.546875 0.828125q-0.734375 1.046875 -0.734375 3.859375zm8.2421875 5.65625l0 -1.609375l1.609375 0l0 1.609375l-1.609375 0zm4.4453125 0l0 -1.609375l1.609375 0l0 1.609375l-1.609375 0zm4.2109375 0l0 -11.453125l1.5625 0l6.015625 8.984375l0 -8.984375l1.453125 0l0 11.453125l-1.5625 0l-6.015625 -9.0l0 9.0l-1.453125 0z" fill-rule="nonzero"/><path fill="#cfe2f3" d="m322.94226 175.68767l108.409454 0l0 47.87401l-108.409454 0z" fill-rule="evenodd"/><path stroke="#000000" stroke-width="1.0" stroke-linejoin="round" stroke-linecap="butt" d="m322.94226 175.68767l108.409454 0l0 47.87401l-108.409454 0z" fill-rule="evenodd"/><path fill="#000000" d="m348.2212 205.48468l4.40625 -11.453125l1.640625 0l4.6875 11.453125l-1.734375 0l-1.328125 -3.46875l-4.796875 0l-1.25 3.46875l-1.625 0zm3.3125 -4.703125l3.890625 0l-1.203125 -3.171875q-0.546875 -1.453125 -0.8125 -2.375q-0.21875 1.09375 -0.609375 2.1875l-1.265625 3.359375zm13.859375 1.65625l1.390625 0.1875q-0.234375 1.421875 -1.171875 2.234375q-0.921875 0.8125 -2.28125 0.8125q-1.703125 0 -2.75 -1.109375q-1.03125 -1.125 -1.03125 -3.203125q0 -1.34375 0.4375 -2.34375q0.453125 -1.015625 1.359375 -1.515625q0.921875 -0.5 1.984375 -0.5q1.359375 0 2.21875 0.6875q0.859375 0.671875 1.09375 1.9375l-1.359375 0.203125q-0.203125 -0.828125 -0.703125 -1.25q-0.484375 -0.421875 -1.1875 -0.421875q-1.0625 0 -1.734375 0.765625q-0.65625 0.75 -0.65625 2.40625q0 1.671875 0.640625 2.4375q0.640625 0.75 1.671875 0.75q0.828125 0 1.375 -0.5q0.5625 -0.515625 0.703125 -1.578125zm2.59375 3.046875l0 -11.453125l1.40625 0l0 6.53125l3.328125 -3.375l1.828125 0l-3.171875 3.078125l3.484375 5.21875l-1.734375 0l-2.734375 -4.25l-1.0 0.953125l0 3.296875l-1.40625 0zm7.609375 -5.65625q0 -2.03125 0.40625 -3.265625q0.421875 -1.234375 1.25 -1.90625q0.828125 -0.671875 2.078125 -0.671875q0.921875 0 1.609375 0.375q0.703125 0.359375 1.15625 1.0625q0.453125 0.703125 0.703125 1.703125q0.265625 1.0 0.265625 2.703125q0 2.015625 -0.421875 3.265625q-0.40625 1.234375 -1.234375 1.921875q-0.828125 0.671875 -2.078125 0.671875q-1.65625 0 -2.609375 -1.203125q-1.125 -1.421875 -1.125 -4.65625zm1.4375 0q0 2.828125 0.65625 3.765625q0.671875 0.921875 1.640625 0.921875q0.96875 0 1.625 -0.9375q0.65625 -0.9375 0.65625 -3.75q0 -2.828125 -0.65625 -3.75q-0.65625 -0.9375 -1.640625 -0.9375q-0.96875 0 -1.546875 0.828125q-0.734375 1.046875 -0.734375 3.859375zm8.2421875 5.65625l0 -1.609375l1.609375 0l0 1.609375l-1.609375 0zm4.4453125 0l0 -1.609375l1.609375 0l0 1.609375l-1.609375 0zm4.1796875 0l0 -11.453125l2.28125 0l2.71875 8.109375q0.375 1.125 0.546875 1.6875q0.1875 -0.625 0.609375 -1.828125l2.734375 -7.96875l2.046875 0l0 11.453125l-1.46875 0l0 -9.59375l-3.328125 9.59375l-1.359375 0l-3.3125 -9.75l0 9.75l-1.46875 0z" fill-rule="nonzero"/><path fill="#cfe2f3" d="m581.60895 172.40814l108.409424 0l0 47.87401l-108.409424 0z" fill-rule="evenodd"/><path stroke="#000000" stroke-width="1.0" stroke-linejoin="round" stroke-linecap="butt" d="m581.60895 172.40814l108.409424 0l0 47.87401l-108.409424 0z" fill-rule="evenodd"/><path fill="#000000" d="m594.4465 202.20514l0 -11.453125l7.734375 0l0 1.34375l-6.21875 0l0 3.546875l5.375 0l0 1.359375l-5.375 0l0 5.203125l-1.515625 0zm15.1953125 -2.671875l1.453125 0.171875q-0.34375 1.28125 -1.28125 1.984375q-0.921875 0.703125 -2.359375 0.703125q-1.828125 0 -2.890625 -1.125q-1.0625 -1.125 -1.0625 -3.140625q0 -2.09375 1.078125 -3.25q1.078125 -1.15625 2.796875 -1.15625q1.65625 0 2.703125 1.140625q1.0625 1.125 1.0625 3.171875q0 0.125 0 0.375l-6.1875 0q0.078125 1.375 0.765625 2.109375q0.703125 0.71875 1.734375 0.71875q0.78125 0 1.328125 -0.40625q0.546875 -0.40625 0.859375 -1.296875zm-4.609375 -2.28125l4.625 0q-0.09375 -1.046875 -0.53125 -1.5625q-0.671875 -0.8125 -1.734375 -0.8125q-0.96875 0 -1.640625 0.65625q-0.65625 0.640625 -0.71875 1.71875zm10.8984375 3.6875l0.203125 1.25q-0.59375 0.125 -1.0625 0.125q-0.765625 0 -1.1875 -0.234375q-0.421875 -0.25 -0.59375 -0.640625q-0.171875 -0.40625 -0.171875 -1.671875l0 -4.765625l-1.03125 0l0 -1.09375l1.03125 0l0 -2.0625l1.40625 -0.84375l0 2.90625l1.40625 0l0 1.09375l-1.40625 0l0 4.84375q0 0.609375 0.0625 0.78125q0.078125 0.171875 0.25 0.28125q0.171875 0.09375 0.484375 0.09375q0.234375 0 0.609375 -0.0625zm6.7890625 -1.78125l1.390625 0.1875q-0.234375 1.421875 -1.171875 2.234375q-0.921875 0.8125 -2.28125 0.8125q-1.703125 0 -2.75 -1.109375q-1.03125 -1.125 -1.03125 -3.203125q0 -1.34375 0.4375 -2.34375q0.453125 -1.015625 1.359375 -1.515625q0.921875 -0.5 1.984375 -0.5q1.359375 0 2.21875 0.6875q0.859375 0.671875 1.09375 1.9375l-1.359375 0.203125q-0.203125 -0.828125 -0.703125 -1.25q-0.484375 -0.421875 -1.1875 -0.421875q-1.0625 0 -1.734375 0.765625q-0.65625 0.75 -0.65625 2.40625q0 1.671875 0.640625 2.4375q0.640625 0.75 1.671875 0.75q0.828125 0 1.375 -0.5q0.5625 -0.515625 0.703125 -1.578125zm2.59375 3.046875l0 -11.453125l1.40625 0l0 4.109375q0.984375 -1.140625 2.484375 -1.140625q0.921875 0 1.59375 0.359375q0.6875 0.359375 0.96875 1.0q0.296875 0.640625 0.296875 1.859375l0 5.265625l-1.40625 0l0 -5.265625q0 -1.046875 -0.453125 -1.53125q-0.453125 -0.484375 -1.296875 -0.484375q-0.625 0 -1.171875 0.328125q-0.546875 0.328125 -0.78125 0.890625q-0.234375 0.546875 -0.234375 1.515625l0 4.546875l-1.40625 0zm14.5703125 -2.671875l1.453125 0.171875q-0.34375 1.28125 -1.28125 1.984375q-0.921875 0.703125 -2.359375 0.703125q-1.828125 0 -2.890625 -1.125q-1.0625 -1.125 -1.0625 -3.140625q0 -2.09375 1.078125 -3.25q1.078125 -1.15625 2.796875 -1.15625q1.65625 0 2.703125 1.140625q1.0625 1.125 1.0625 3.171875q0 0.125 0 0.375l-6.1875 0q0.078125 1.375 0.765625 2.109375q0.703125 0.71875 1.734375 0.71875q0.78125 0 1.328125 -0.40625q0.546875 -0.40625 0.859375 -1.296875zm-4.609375 -2.28125l4.625 0q-0.09375 -1.046875 -0.53125 -1.5625q-0.671875 -0.8125 -1.734375 -0.8125q-0.96875 0 -1.640625 0.65625q-0.65625 0.640625 -0.71875 1.71875zm7.8203125 4.953125l0 -8.296875l1.265625 0l0 1.25q0.484375 -0.875 0.890625 -1.15625q0.40625 -0.28125 0.90625 -0.28125q0.703125 0 1.4375 0.453125l-0.484375 1.296875q-0.515625 -0.296875 -1.03125 -0.296875q-0.453125 0 -0.828125 0.28125q-0.359375 0.265625 -0.515625 0.765625q-0.234375 0.75 -0.234375 1.640625l0 4.34375l-1.40625 0zm4.953125 -5.65625q0 -2.03125 0.40625 -3.265625q0.421875 -1.234375 1.25 -1.90625q0.828125 -0.671875 2.078125 -0.671875q0.921875 0 1.609375 0.375q0.703125 0.359375 1.15625 1.0625q0.453125 0.703125 0.703125 1.703125q0.265625 1.0 0.265625 2.703125q0 2.015625 -0.421875 3.265625q-0.40625 1.234375 -1.234375 1.921875q-0.828125 0.671875 -2.078125 0.671875q-1.65625 0 -2.609375 -1.203125q-1.125 -1.421875 -1.125 -4.65625zm1.4375 0q0 2.828125 0.65625 3.765625q0.671875 0.921875 1.640625 0.921875q0.96875 0 1.625 -0.9375q0.65625 -0.9375 0.65625 -3.75q0 -2.828125 -0.65625 -3.75q-0.65625 -0.9375 -1.640625 -0.9375q-0.96875 0 -1.546875 0.828125q-0.734375 1.046875 -0.734375 3.859375zm8.2421875 5.65625l0 -1.609375l1.609375 0l0 1.609375l-1.609375 0zm4.4453125 0l0 -1.609375l1.609375 0l0 1.609375l-1.609375 0zm4.1796875 0l0 -11.453125l2.28125 0l2.71875 8.109375q0.375 1.125 0.546875 1.6875q0.1875 -0.625 0.609375 -1.828125l2.734375 -7.96875l2.046875 0l0 11.453125l-1.46875 0l0 -9.59375l-3.328125 9.59375l-1.359375 0l-3.3125 -9.75l0 9.75l-1.46875 0z" fill-rule="nonzero"/><path fill="#cfe2f3" d="m372.01837 314.68198l0 0c0 -7.3707886 16.41388 -13.346008 36.661407 -13.346008c20.247559 0 36.661438 5.9752197 36.661438 13.346008l0 53.384064c0 7.370819 -16.41388 13.346039 -36.661438 13.346039c-20.247528 0 -36.661407 -5.9752197 -36.661407 -13.346039z" fill-rule="evenodd"/><path fill="#000000" fill-opacity="0.0" d="m445.34122 314.68198l0 0c0 7.3707886 -16.41388 13.346008 -36.661438 13.346008c-20.247528 0 -36.661407 -5.9752197 -36.661407 -13.346008" fill-rule="evenodd"/><path fill="#000000" fill-opacity="0.0" d="m372.01837 314.68198l0 0c0 -7.3707886 16.41388 -13.346008 36.661407 -13.346008c20.247559 0 36.661438 5.9752197 36.661438 13.346008l0 53.384064c0 7.370819 -16.41388 13.346039 -36.661438 13.346039c-20.247528 0 -36.661407 -5.9752197 -36.661407 -13.346039z" fill-rule="evenodd"/><path stroke="#000000" stroke-width="1.0" stroke-linejoin="round" stroke-linecap="butt" d="m445.34122 314.68198l0 0c0 7.3707886 -16.41388 13.346008 -36.661438 13.346008c-20.247528 0 -36.661407 -5.9752197 -36.661407 -13.346008" fill-rule="evenodd"/><path stroke="#000000" stroke-width="1.0" stroke-linejoin="round" stroke-linecap="butt" d="m372.01837 314.68198l0 0c0 -7.3707886 16.41388 -13.346008 36.661407 -13.346008c20.247559 0 36.661438 5.9752197 36.661438 13.346008l0 53.384064c0 7.370819 -16.41388 13.346039 -36.661438 13.346039c-20.247528 0 -36.661407 -5.9752197 -36.661407 -13.346039z" fill-rule="evenodd"/><path fill="#000000" d="m389.49228 353.907l0 -11.453125l5.078125 0q1.53125 0 2.328125 0.3125q0.796875 0.296875 1.265625 1.078125q0.484375 0.78125 0.484375 1.734375q0 1.21875 -0.796875 2.0625q-0.78125 0.828125 -2.4375 1.046875q0.609375 0.296875 0.921875 0.578125q0.65625 0.609375 1.25 1.515625l2.0 3.125l-1.90625 0l-1.515625 -2.390625q-0.671875 -1.03125 -1.109375 -1.578125q-0.421875 -0.546875 -0.765625 -0.765625q-0.328125 -0.21875 -0.6875 -0.296875q-0.25 -0.0625 -0.84375 -0.0625l-1.75 0l0 5.09375l-1.515625 0zm1.515625 -6.40625l3.25 0q1.046875 0 1.625 -0.203125q0.59375 -0.21875 0.890625 -0.6875q0.3125 -0.484375 0.3125 -1.03125q0 -0.8125 -0.59375 -1.328125q-0.59375 -0.53125 -1.859375 -0.53125l-3.625 0l0 3.78125zm15.5078125 3.734375l1.453125 0.171875q-0.34375 1.28125 -1.28125 1.984375q-0.921875 0.703125 -2.359375 0.703125q-1.828125 0 -2.890625 -1.125q-1.0625 -1.125 -1.0625 -3.140625q0 -2.09375 1.078125 -3.25q1.078125 -1.15625 2.796875 -1.15625q1.65625 0 2.703125 1.140625q1.0625 1.125 1.0625 3.171875q0 0.125 0 0.375l-6.1875 0q0.078125 1.375 0.765625 2.109375q0.703125 0.71875 1.734375 0.71875q0.78125 0 1.328125 -0.40625q0.546875 -0.40625 0.859375 -1.296875zm-4.609375 -2.28125l4.625 0q-0.09375 -1.046875 -0.53125 -1.5625q-0.671875 -0.8125 -1.734375 -0.8125q-0.96875 0 -1.640625 0.65625q-0.65625 0.640625 -0.71875 1.71875zm13.2109375 4.953125l0 -1.046875q-0.78125 1.234375 -2.3125 1.234375q-1.0 0 -1.828125 -0.546875q-0.828125 -0.546875 -1.296875 -1.53125q-0.453125 -0.984375 -0.453125 -2.25q0 -1.25 0.40625 -2.25q0.421875 -1.015625 1.25 -1.546875q0.828125 -0.546875 1.859375 -0.546875q0.75 0 1.328125 0.3125q0.59375 0.3125 0.953125 0.828125l0 -4.109375l1.40625 0l0 11.453125l-1.3125 0zm-4.4375 -4.140625q0 1.59375 0.671875 2.390625q0.671875 0.78125 1.578125 0.78125q0.921875 0 1.5625 -0.75q0.65625 -0.765625 0.65625 -2.3125q0 -1.703125 -0.65625 -2.5q-0.65625 -0.796875 -1.625 -0.796875q-0.9375 0 -1.5625 0.765625q-0.625 0.765625 -0.625 2.421875zm7.9609375 -5.703125l0 -1.609375l1.40625 0l0 1.609375l-1.40625 0zm0 9.84375l0 -8.296875l1.40625 0l0 8.296875l-1.40625 0zm2.9921875 -2.484375l1.390625 -0.21875q0.109375 0.84375 0.640625 1.296875q0.546875 0.4375 1.5 0.4375q0.96875 0 1.4375 -0.390625q0.46875 -0.40625 0.46875 -0.9375q0 -0.46875 -0.40625 -0.75q-0.296875 -0.1875 -1.4375 -0.46875q-1.546875 -0.390625 -2.15625 -0.671875q-0.59375 -0.296875 -0.90625 -0.796875q-0.296875 -0.5 -0.296875 -1.109375q0 -0.5625 0.25 -1.03125q0.25 -0.46875 0.6875 -0.78125q0.328125 -0.25 0.890625 -0.40625q0.578125 -0.171875 1.21875 -0.171875q0.984375 0 1.71875 0.28125q0.734375 0.28125 1.078125 0.765625q0.359375 0.46875 0.5 1.28125l-1.375 0.1875q-0.09375 -0.640625 -0.546875 -1.0q-0.453125 -0.359375 -1.265625 -0.359375q-0.96875 0 -1.390625 0.328125q-0.40625 0.3125 -0.40625 0.734375q0 0.28125 0.171875 0.5q0.171875 0.21875 0.53125 0.375q0.21875 0.078125 1.25 0.359375q1.484375 0.390625 2.078125 0.65625q0.59375 0.25 0.921875 0.734375q0.34375 0.484375 0.34375 1.203125q0 0.703125 -0.421875 1.328125q-0.40625 0.609375 -1.1875 0.953125q-0.765625 0.34375 -1.734375 0.34375q-1.625 0 -2.46875 -0.671875q-0.84375 -0.671875 -1.078125 -2.0z" fill-rule="nonzero"/><path fill="#cfe2f3" d="m304.96326 404.29135l104.09448 0c14.372467 0 26.02362 13.487274 26.02362 30.124664c0 16.63739 -11.651154 30.124664 -26.02362 30.124664l-104.09448 0l0 0c-14.372467 0 -26.02362 -13.487274 -26.02362 -30.124664c0 -16.63739 11.651154 -30.124664 26.02362 -30.124664z" fill-rule="evenodd"/><path fill="#000000" fill-opacity="0.0" d="m409.05774 464.54068c-14.372437 0 -26.02362 -13.487274 -26.02362 -30.124664c0 -16.63739 11.651184 -30.124664 26.02362 -30.124664" fill-rule="evenodd"/><path fill="#000000" fill-opacity="0.0" d="m304.96326 404.29135l104.09448 0c14.372467 0 26.02362 13.487274 26.02362 30.124664c0 16.63739 -11.651154 30.124664 -26.02362 30.124664l-104.09448 0l0 0c-14.372467 0 -26.02362 -13.487274 -26.02362 -30.124664c0 -16.63739 11.651154 -30.124664 26.02362 -30.124664z" fill-rule="evenodd"/><path stroke="#000000" stroke-width="1.0" stroke-linejoin="round" stroke-linecap="butt" d="m409.05774 464.54068c-14.372437 0 -26.02362 -13.487274 -26.02362 -30.124664c0 -16.63739 11.651184 -30.124664 26.02362 -30.124664" fill-rule="evenodd"/><path stroke="#000000" stroke-width="1.0" stroke-linejoin="round" stroke-linecap="butt" d="m304.96326 404.29135l104.09448 0c14.372467 0 26.02362 13.487274 26.02362 30.124664c0 16.63739 -11.651154 30.124664 -26.02362 30.124664l-104.09448 0l0 0c-14.372467 0 -26.02362 -13.487274 -26.02362 -30.124664c0 -16.63739 11.651154 -30.124664 26.02362 -30.124664z" fill-rule="evenodd"/><path fill="#000000" d="m315.19763 440.276l0 -11.453125l4.328125 0q1.140625 0 1.734375 0.109375q0.84375 0.140625 1.40625 0.53125q0.578125 0.390625 0.921875 1.109375q0.359375 0.703125 0.359375 1.5625q0 1.453125 -0.9375 2.46875q-0.921875 1.015625 -3.359375 1.015625l-2.9375 0l0 4.65625l-1.515625 0zm1.515625 -6.015625l2.96875 0q1.46875 0 2.078125 -0.546875q0.625 -0.546875 0.625 -1.53125q0 -0.71875 -0.375 -1.234375q-0.359375 -0.515625 -0.953125 -0.671875q-0.375 -0.109375 -1.40625 -0.109375l-2.9375 0l0 4.09375zm17.84375 4.78125q1.046875 0.734375 1.9375 1.0625l-0.4375 1.0625q-1.234375 -0.4375 -2.46875 -1.40625q-1.265625 0.71875 -2.8125 0.71875q-1.546875 0 -2.8125 -0.75q-1.265625 -0.765625 -1.953125 -2.125q-0.6875 -1.359375 -0.6875 -3.0625q0 -1.6875 0.6875 -3.078125q0.6875 -1.390625 1.953125 -2.109375q1.28125 -0.734375 2.84375 -0.734375q1.59375 0 2.859375 0.75q1.28125 0.75 1.9375 2.109375q0.671875 1.359375 0.671875 3.0625q0 1.40625 -0.4375 2.546875q-0.421875 1.125 -1.28125 1.953125zm-3.34375 -1.9375q1.3125 0.375 2.171875 1.09375q1.328125 -1.21875 1.328125 -3.65625q0 -1.390625 -0.46875 -2.421875q-0.46875 -1.046875 -1.390625 -1.625q-0.90625 -0.578125 -2.03125 -0.578125q-1.703125 0 -2.828125 1.171875q-1.109375 1.15625 -1.109375 3.453125q0 2.234375 1.109375 3.4375q1.109375 1.1875 2.828125 1.1875q0.8125 0 1.53125 -0.296875q-0.71875 -0.46875 -1.5 -0.65625l0.359375 -1.109375zm12.3671875 3.171875l0 -1.21875q-0.96875 1.40625 -2.640625 1.40625q-0.734375 0 -1.375 -0.28125q-0.625 -0.28125 -0.9375 -0.703125q-0.3125 -0.4375 -0.4375 -1.046875q-0.078125 -0.421875 -0.078125 -1.3125l0 -5.140625l1.40625 0l0 4.59375q0 1.109375 0.078125 1.484375q0.140625 0.5625 0.5625 0.875q0.4375 0.3125 1.0625 0.3125q0.640625 0 1.1875 -0.3125q0.5625 -0.328125 0.78125 -0.890625q0.234375 -0.5625 0.234375 -1.625l0 -4.4375l1.40625 0l0 8.296875l-1.25 0zm9.1328125 -2.671875l1.453125 0.171875q-0.34375 1.28125 -1.28125 1.984375q-0.921875 0.703125 -2.359375 0.703125q-1.828125 0 -2.890625 -1.125q-1.0625 -1.125 -1.0625 -3.140625q0 -2.09375 1.078125 -3.25q1.078125 -1.15625 2.796875 -1.15625q1.65625 0 2.703125 1.140625q1.0625 1.125 1.0625 3.171875q0 0.125 0 0.375l-6.1875 0q0.078125 1.375 0.765625 2.109375q0.703125 0.71875 1.734375 0.71875q0.78125 0 1.328125 -0.40625q0.546875 -0.40625 0.859375 -1.296875zm-4.609375 -2.28125l4.625 0q-0.09375 -1.046875 -0.53125 -1.5625q-0.671875 -0.8125 -1.734375 -0.8125q-0.96875 0 -1.640625 0.65625q-0.65625 0.640625 -0.71875 1.71875zm13.2734375 4.953125l0 -1.21875q-0.96875 1.40625 -2.640625 1.40625q-0.734375 0 -1.375 -0.28125q-0.625 -0.28125 -0.9375 -0.703125q-0.3125 -0.4375 -0.4375 -1.046875q-0.078125 -0.421875 -0.078125 -1.3125l0 -5.140625l1.40625 0l0 4.59375q0 1.109375 0.078125 1.484375q0.140625 0.5625 0.5625 0.875q0.4375 0.3125 1.0625 0.3125q0.640625 0 1.1875 -0.3125q0.5625 -0.328125 0.78125 -0.890625q0.234375 -0.5625 0.234375 -1.625l0 -4.4375l1.40625 0l0 8.296875l-1.25 0zm9.1328125 -2.671875l1.453125 0.171875q-0.34375 1.28125 -1.28125 1.984375q-0.921875 0.703125 -2.359375 0.703125q-1.828125 0 -2.890625 -1.125q-1.0625 -1.125 -1.0625 -3.140625q0 -2.09375 1.078125 -3.25q1.078125 -1.15625 2.796875 -1.15625q1.65625 0 2.703125 1.140625q1.0625 1.125 1.0625 3.171875q0 0.125 0 0.375l-6.1875 0q0.078125 1.375 0.765625 2.109375q0.703125 0.71875 1.734375 0.71875q0.78125 0 1.328125 -0.40625q0.546875 -0.40625 0.859375 -1.296875zm-4.609375 -2.28125l4.625 0q-0.09375 -1.046875 -0.53125 -1.5625q-0.671875 -0.8125 -1.734375 -0.8125q-0.96875 0 -1.640625 0.65625q-0.65625 0.640625 -0.71875 1.71875z" fill-rule="nonzero"/><path fill="#000000" fill-opacity="0.0" d="m635.81366 220.28215l-227.14963 81.03938" fill-rule="evenodd"/><path stroke="#000000" stroke-width="1.0" stroke-linejoin="round" stroke-linecap="butt" d="m635.81366 220.28215l-221.4985 79.02324" fill-rule="evenodd"/><path fill="#000000" stroke="#000000" stroke-width="1.0" stroke-linecap="butt" d="m413.76016 297.7497l-3.7192078 3.080597l4.8292236 0.030792236z" fill-rule="evenodd"/><path fill="#000000" fill-opacity="0.0" d="m377.14697 223.56168l31.527557 77.763794" fill-rule="evenodd"/><path stroke="#000000" stroke-width="1.0" stroke-linejoin="round" stroke-linecap="butt" d="m377.14697 223.56168l29.273224 72.2034" fill-rule="evenodd"/><path fill="#000000" stroke="#000000" stroke-width="1.0" stroke-linecap="butt" d="m404.8895 296.38565l3.2357788 3.585022l-0.17434692 -4.8262024z" fill-rule="evenodd"/><path fill="#000000" fill-opacity="0.0" d="m172.68504 199.62466l150.26772 0" fill-rule="evenodd"/><path stroke="#000000" stroke-width="1.0" stroke-linejoin="round" stroke-linecap="butt" d="m172.68504 199.62466l144.26772 0" fill-rule="evenodd"/><path fill="#000000" stroke="#000000" stroke-width="1.0" stroke-linecap="butt" d="m316.95276 201.2764l4.538086 -1.6517334l-4.538086 -1.6517181z" fill-rule="evenodd"/><path fill="#000000" fill-opacity="0.0" d="m383.8084 219.50636l175.33856 0l0 34.740158l-175.33856 0z" fill-rule="evenodd"/><path fill="#000000" d="m398.90216 240.66635l-4.65625 0l0 -8.078125l1.125 0l0 7.140625l3.53125 0l0 0.9375zm7.3647156 0l-1.25 0l-1.203125 -2.578125q-0.140625 -0.296875 -0.28125 -0.484375q-0.140625 -0.203125 -0.3125 -0.3125q-0.15625 -0.125 -0.359375 -0.171875q-0.1875 -0.046875 -0.421875 -0.046875l-0.515625 0l0 3.59375l-1.109375 0l0 -8.078125l2.171875 0q0.703125 0 1.203125 0.15625q0.515625 0.15625 0.828125 0.4375q0.328125 0.265625 0.484375 0.671875q0.15625 0.390625 0.15625 0.859375q0 0.375 -0.125 0.71875q-0.109375 0.328125 -0.328125 0.609375q-0.21875 0.28125 -0.546875 0.484375q-0.3125 0.1875 -0.734375 0.296875q0.34375 0.109375 0.578125 0.40625q0.234375 0.296875 0.484375 0.78125l1.28125 2.65625zm-1.765625 -5.859375q0 -0.640625 -0.40625 -0.96875q-0.40625 -0.328125 -1.140625 -0.328125l-1.03125 0l0 2.671875l0.890625 0q0.390625 0 0.6875 -0.078125q0.3125 -0.09375 0.53125 -0.265625q0.234375 -0.1875 0.34375 -0.4375q0.125 -0.265625 0.125 -0.59375zm8.052216 5.859375l-4.59375 0l0 -8.078125l4.59375 0l0 0.921875l-3.484375 0l0 2.515625l3.359375 0l0 0.921875l-3.359375 0l0 2.78125l3.484375 0l0 0.9375zm7.7865906 0l-1.078125 0l-0.15625 -5.03125l-0.0625 -1.9375l-0.390625 1.125l-1.1875 3.21875l-0.765625 0l-1.125 -3.09375l-0.375 -1.25l-0.03125 2.015625l-0.140625 4.953125l-1.046875 0l0.40625 -8.078125l1.296875 0l1.09375 3.046875l0.34375 1.015625l0.34375 -1.015625l1.140625 -3.046875l1.34375 0l0.390625 8.078125zm7.932556 -2.96875q0 -0.671875 0.171875 -1.265625q0.1875 -0.609375 0.546875 -1.0625q0.375 -0.453125 0.9375 -0.71875q0.578125 -0.265625 1.375 -0.265625q0.3125 0 0.625 0.046875q0.3125 0.046875 0.65625 0.15625l0.953125 -0.234375l0 8.84375l-1.078125 0l0 -2.34375l0.046875 -1.328125q-0.875 1.25 -2.078125 1.25q-0.546875 0 -0.953125 -0.21875q-0.390625 -0.21875 -0.671875 -0.625q-0.265625 -0.421875 -0.40625 -0.984375q-0.125 -0.5625 -0.125 -1.25zm1.109375 -0.078125q0 0.53125 0.0625 0.953125q0.078125 0.40625 0.234375 0.6875q0.171875 0.28125 0.40625 0.4375q0.234375 0.15625 0.5625 0.15625q0.40625 0 0.859375 -0.359375q0.453125 -0.359375 0.953125 -1.078125l0 -2.890625q-0.25 -0.109375 -0.5625 -0.1875q-0.3125 -0.078125 -0.65625 -0.078125q-0.921875 0 -1.390625 0.609375q-0.46875 0.59375 -0.46875 1.75zm12.130341 5.578125l-6.953125 0l0 -0.890625l6.953125 0l0 0.890625zm5.4115906 -2.53125l0 -4.453125q0 -0.296875 -0.015625 -0.46875q-0.015625 -0.1875 -0.0625 -0.296875q-0.046875 -0.109375 -0.125 -0.15625q-0.0625 -0.046875 -0.171875 -0.046875q-0.125 0 -0.234375 0.078125q-0.09375 0.078125 -0.21875 0.25q-0.125 0.15625 -0.265625 0.4375q-0.140625 0.265625 -0.34375 0.671875l0 3.984375l-0.984375 0l0 -4.34375q0 -0.328125 -0.03125 -0.53125q-0.015625 -0.21875 -0.0625 -0.328125q-0.046875 -0.125 -0.125 -0.171875q-0.0625 -0.046875 -0.171875 -0.046875q-0.109375 0 -0.21875 0.0625q-0.09375 0.0625 -0.21875 0.234375q-0.109375 0.15625 -0.265625 0.4375q-0.140625 0.265625 -0.34375 0.703125l0 3.984375l-0.984375 0l0 -6.203125l0.8125 0l0.046875 1.171875q0.171875 -0.34375 0.3125 -0.59375q0.15625 -0.25 0.3125 -0.390625q0.171875 -0.15625 0.34375 -0.21875q0.1875 -0.078125 0.40625 -0.078125q0.5 0 0.75 0.328125q0.265625 0.328125 0.265625 1.015625q0.15625 -0.328125 0.296875 -0.578125q0.140625 -0.25 0.296875 -0.421875q0.171875 -0.171875 0.359375 -0.25q0.203125 -0.09375 0.46875 -0.09375q1.171875 0 1.171875 1.796875l0 4.515625l-1.0 0zm8.505341 2.53125l-6.953125 0l0 -0.890625l6.953125 0l0 0.890625zm3.1147156 -7.84375l-1.84375 0l0 -0.890625l2.921875 0l0 5.3125l1.84375 0l0 0.890625l-4.96875 0l0 -0.890625l2.046875 0l0 -4.421875zm0.375 -3.5q0.171875 0 0.328125 0.078125q0.15625 0.0625 0.265625 0.1875q0.125 0.109375 0.1875 0.265625q0.0625 0.140625 0.0625 0.328125q0 0.171875 -0.0625 0.328125q-0.0625 0.140625 -0.1875 0.265625q-0.109375 0.109375 -0.265625 0.1875q-0.15625 0.0625 -0.328125 0.0625q-0.1875 0 -0.34375 -0.0625q-0.15625 -0.078125 -0.265625 -0.1875q-0.109375 -0.125 -0.1875 -0.265625q-0.0625 -0.15625 -0.0625 -0.328125q0 -0.1875 0.0625 -0.328125q0.078125 -0.15625 0.1875 -0.265625q0.109375 -0.125 0.265625 -0.1875q0.15625 -0.078125 0.34375 -0.078125zm4.4584656 2.609375l0.96875 0l0.03125 1.0q0.28125 -0.328125 0.53125 -0.53125q0.25 -0.21875 0.484375 -0.34375q0.25 -0.125 0.5 -0.171875q0.265625 -0.0625 0.53125 -0.0625q0.96875 0 1.453125 0.5625q0.484375 0.5625 0.484375 1.703125l0 4.046875l-1.0625 0l0 -3.96875q0 -0.71875 -0.28125 -1.0625q-0.265625 -0.359375 -0.8125 -0.359375q-0.1875 0 -0.375 0.0625q-0.1875 0.0625 -0.390625 0.203125q-0.203125 0.140625 -0.453125 0.390625q-0.234375 0.25 -0.53125 0.625l0 4.109375l-1.078125 0l0 -6.203125zm12.927216 8.734375l-6.953125 0l0 -0.890625l6.953125 0l0 0.890625zm6.3022156 -5.75q0 0.828125 -0.234375 1.453125q-0.234375 0.609375 -0.640625 1.03125q-0.40625 0.40625 -0.96875 0.609375q-0.546875 0.203125 -1.203125 0.203125q-0.296875 0 -0.59375 -0.03125q-0.296875 -0.03125 -0.59375 -0.109375l0 2.59375l-1.078125 0l0 -8.734375l0.96875 0l0.0625 1.03125q0.46875 -0.625 0.984375 -0.875q0.53125 -0.265625 1.140625 -0.265625q0.53125 0 0.921875 0.21875q0.40625 0.21875 0.671875 0.625q0.28125 0.40625 0.421875 0.984375q0.140625 0.5625 0.140625 1.265625zm-1.109375 0.046875q0 -0.484375 -0.078125 -0.890625q-0.0625 -0.40625 -0.21875 -0.6875q-0.15625 -0.296875 -0.390625 -0.453125q-0.234375 -0.171875 -0.578125 -0.171875q-0.203125 0 -0.421875 0.0625q-0.203125 0.0625 -0.4375 0.21875q-0.21875 0.15625 -0.46875 0.40625q-0.25 0.25 -0.53125 0.609375l0 3.015625q0.296875 0.125 0.625 0.203125q0.328125 0.0625 0.640625 0.0625q0.875 0 1.359375 -0.59375q0.5 -0.59375 0.5 -1.78125zm3.0053406 -3.03125l0.984375 0l0.03125 1.140625q0.5625 -0.65625 1.09375 -0.953125q0.53125 -0.296875 1.078125 -0.296875q0.953125 0 1.453125 0.625q0.5 0.625 0.46875 1.84375l-1.09375 0q0.015625 -0.8125 -0.234375 -1.171875q-0.25 -0.375 -0.75 -0.375q-0.21875 0 -0.4375 0.078125q-0.21875 0.078125 -0.453125 0.25q-0.234375 0.171875 -0.5 0.4375q-0.25 0.265625 -0.546875 0.640625l0 3.984375l-1.09375 0l0 -6.203125zm12.114716 3.046875q0 0.734375 -0.203125 1.34375q-0.203125 0.59375 -0.59375 1.03125q-0.375 0.421875 -0.9375 0.65625q-0.546875 0.234375 -1.234375 0.234375q-0.671875 0 -1.203125 -0.203125q-0.53125 -0.203125 -0.90625 -0.609375q-0.359375 -0.40625 -0.5625 -1.0q-0.1875 -0.59375 -0.1875 -1.359375q0 -0.71875 0.203125 -1.3125q0.203125 -0.609375 0.59375 -1.03125q0.390625 -0.4375 0.9375 -0.671875q0.546875 -0.234375 1.25 -0.234375q0.65625 0 1.1875 0.203125q0.53125 0.203125 0.890625 0.609375q0.375 0.390625 0.5625 0.984375q0.203125 0.59375 0.203125 1.359375zm-1.09375 0.046875q0 -0.5625 -0.140625 -0.984375q-0.125 -0.4375 -0.359375 -0.71875q-0.234375 -0.296875 -0.578125 -0.4375q-0.328125 -0.15625 -0.734375 -0.15625q-0.484375 0 -0.828125 0.1875q-0.34375 0.1875 -0.5625 0.515625q-0.21875 0.3125 -0.328125 0.734375q-0.09375 0.40625 -0.09375 0.859375q0 0.578125 0.125 1.015625q0.125 0.4375 0.359375 0.71875q0.234375 0.28125 0.5625 0.4375q0.34375 0.140625 0.765625 0.140625q0.484375 0 0.8125 -0.1875q0.34375 -0.1875 0.5625 -0.5q0.234375 -0.3125 0.328125 -0.734375q0.109375 -0.421875 0.109375 -0.890625zm7.1147156 -2.21875q0.171875 0.21875 0.265625 0.515625q0.109375 0.28125 0.109375 0.609375q0 0.484375 -0.1875 0.890625q-0.171875 0.390625 -0.5 0.671875q-0.3125 0.28125 -0.765625 0.4375q-0.4375 0.15625 -0.984375 0.15625q-0.390625 0 -0.734375 -0.078125q-0.328125 -0.078125 -0.53125 -0.203125q-0.109375 0.171875 -0.203125 0.328125q-0.078125 0.15625 -0.078125 0.34375q0 0.234375 0.21875 0.390625q0.234375 0.15625 0.609375 0.171875l1.625 0.0625q0.46875 0 0.859375 0.109375q0.390625 0.109375 0.671875 0.3125q0.28125 0.1875 0.4375 0.484375q0.15625 0.28125 0.15625 0.671875q0 0.40625 -0.1875 0.78125q-0.171875 0.375 -0.546875 0.65625q-0.359375 0.28125 -0.9375 0.4375q-0.578125 0.171875 -1.375 0.171875q-0.75 0 -1.28125 -0.125q-0.53125 -0.109375 -0.875 -0.328125q-0.328125 -0.21875 -0.484375 -0.515625q-0.15625 -0.28125 -0.15625 -0.640625q0 -0.453125 0.203125 -0.796875q0.21875 -0.328125 0.65625 -0.640625q-0.15625 -0.078125 -0.28125 -0.1875q-0.109375 -0.109375 -0.1875 -0.234375q-0.078125 -0.140625 -0.109375 -0.28125q-0.03125 -0.15625 -0.03125 -0.296875q0 -0.40625 0.1875 -0.734375q0.1875 -0.34375 0.4375 -0.640625q-0.109375 -0.140625 -0.203125 -0.265625q-0.09375 -0.140625 -0.15625 -0.296875q-0.0625 -0.15625 -0.09375 -0.34375q-0.03125 -0.1875 -0.03125 -0.421875q0 -0.484375 0.171875 -0.875q0.171875 -0.40625 0.484375 -0.6875q0.328125 -0.28125 0.765625 -0.4375q0.453125 -0.15625 1.0 -0.15625q0.234375 0 0.4375 0.03125q0.21875 0.03125 0.375 0.078125l2.25 0l0 0.875l-1.0 0zm-3.734375 6.21875q0 0.4375 0.453125 0.640625q0.46875 0.203125 1.28125 0.203125q0.515625 0 0.859375 -0.09375q0.359375 -0.09375 0.5625 -0.25q0.21875 -0.140625 0.3125 -0.34375q0.09375 -0.1875 0.09375 -0.390625q0 -0.375 -0.3125 -0.5625q-0.3125 -0.171875 -0.953125 -0.203125l-1.609375 -0.0625q-0.203125 0.140625 -0.34375 0.265625q-0.125 0.140625 -0.203125 0.265625q-0.078125 0.140625 -0.109375 0.265625q-0.03125 0.140625 -0.03125 0.265625zm0.328125 -5.0625q0 0.296875 0.09375 0.546875q0.109375 0.234375 0.28125 0.40625q0.1875 0.171875 0.421875 0.28125q0.25 0.09375 0.546875 0.09375q0.328125 0 0.578125 -0.109375q0.25 -0.109375 0.40625 -0.296875q0.171875 -0.1875 0.265625 -0.421875q0.09375 -0.25 0.09375 -0.5q0 -0.296875 -0.109375 -0.546875q-0.09375 -0.25 -0.28125 -0.421875q-0.171875 -0.171875 -0.421875 -0.265625q-0.234375 -0.09375 -0.53125 -0.09375q-0.3125 0 -0.5625 0.109375q-0.25 0.109375 -0.421875 0.296875q-0.171875 0.171875 -0.265625 0.421875q-0.09375 0.234375 -0.09375 0.5zm6.1459656 -2.03125l0.984375 0l0.03125 1.140625q0.5625 -0.65625 1.09375 -0.953125q0.53125 -0.296875 1.078125 -0.296875q0.953125 0 1.453125 0.625q0.5 0.625 0.46875 1.84375l-1.09375 0q0.015625 -0.8125 -0.234375 -1.171875q-0.25 -0.375 -0.75 -0.375q-0.21875 0 -0.4375 0.078125q-0.21875 0.078125 -0.453125 0.25q-0.234375 0.171875 -0.5 0.4375q-0.25 0.265625 -0.546875 0.640625l0 3.984375l-1.09375 0l0 -6.203125zm11.958435 2.765625q0 0.234375 -0.015625 0.390625q0 0.15625 -0.015625 0.296875l-4.359375 0q0 0.953125 0.53125 1.46875q0.53125 0.5 1.53125 0.5q0.28125 0 0.546875 -0.015625q0.28125 -0.03125 0.53125 -0.0625q0.25 -0.046875 0.484375 -0.09375q0.234375 -0.046875 0.421875 -0.09375l0 0.875q-0.4375 0.125 -1.0 0.203125q-0.546875 0.078125 -1.140625 0.078125q-0.796875 0 -1.375 -0.21875q-0.5625 -0.21875 -0.9375 -0.625q-0.359375 -0.40625 -0.5468445 -1.0q-0.171875 -0.609375 -0.171875 -1.359375q0 -0.65625 0.18746948 -1.234375q0.1875 -0.578125 0.546875 -1.015625q0.375 -0.453125 0.890625 -0.703125q0.53125 -0.265625 1.203125 -0.265625q0.640625 0 1.140625 0.203125q0.5 0.203125 0.84375 0.578125q0.34375 0.375 0.515625 0.90625q0.1875 0.53125 0.1875 1.1875zm-1.125 -0.140625q0.015625 -0.421875 -0.078125 -0.765625q-0.09375 -0.34375 -0.3125 -0.578125q-0.203125 -0.25 -0.515625 -0.390625q-0.296875 -0.140625 -0.71875 -0.140625q-0.34375 0 -0.640625 0.140625q-0.28125 0.125 -0.5 0.375q-0.203125 0.25 -0.34375 0.59375q-0.125 0.34375 -0.15625 0.765625l3.265625 0zm7.755371 1.890625q0 0.328125 -0.125 0.59375q-0.109375 0.25 -0.296875 0.453125q-0.1875 0.203125 -0.4375 0.34375q-0.25 0.140625 -0.546875 0.234375q-0.28125 0.09375 -0.59375 0.125q-0.296875 0.046875 -0.59375 0.046875q-0.625 0 -1.15625 -0.0625q-0.53125 -0.046875 -1.03125 -0.171875l0 -0.984375q0.546875 0.15625 1.078125 0.234375q0.546875 0.078125 1.078125 0.078125q0.765625 0 1.140625 -0.203125q0.375 -0.21875 0.375 -0.609375q0 -0.171875 -0.0625 -0.296875q-0.0625 -0.140625 -0.21875 -0.25q-0.15625 -0.125 -0.484375 -0.25q-0.3125 -0.140625 -0.875 -0.296875q-0.421875 -0.125 -0.78125 -0.28125q-0.359375 -0.15625 -0.625 -0.375q-0.25 -0.21875 -0.40625 -0.5q-0.140625 -0.296875 -0.140625 -0.6875q0 -0.265625 0.125 -0.578125q0.125 -0.3125 0.40625 -0.578125q0.296875 -0.265625 0.78125 -0.4375q0.5 -0.171875 1.234375 -0.171875q0.375 0 0.8125 0.046875q0.453125 0.03125 0.9375 0.125l0 0.96875q-0.515625 -0.125 -0.96875 -0.1875q-0.453125 -0.0625 -0.78125 -0.0625q-0.40625 0 -0.6875 0.0625q-0.265625 0.0625 -0.4375 0.171875q-0.171875 0.109375 -0.25 0.25q-0.0625 0.140625 -0.0625 0.3125q0 0.171875 0.0625 0.3125q0.0625 0.125 0.234375 0.25q0.171875 0.125 0.484375 0.265625q0.328125 0.125 0.828125 0.265625q0.546875 0.15625 0.921875 0.34375q0.390625 0.171875 0.625 0.390625q0.234375 0.21875 0.328125 0.484375q0.109375 0.265625 0.109375 0.625zm6.958435 0q0 0.328125 -0.125 0.59375q-0.109375 0.25 -0.296875 0.453125q-0.1875 0.203125 -0.4375 0.34375q-0.25 0.140625 -0.546875 0.234375q-0.28125 0.09375 -0.59375 0.125q-0.296875 0.046875 -0.59375 0.046875q-0.625 0 -1.15625 -0.0625q-0.53125 -0.046875 -1.03125 -0.171875l0 -0.984375q0.546875 0.15625 1.078125 0.234375q0.546875 0.078125 1.078125 0.078125q0.765625 0 1.140625 -0.203125q0.375 -0.21875 0.375 -0.609375q0 -0.171875 -0.0625 -0.296875q-0.0625 -0.140625 -0.21875 -0.25q-0.15625 -0.125 -0.484375 -0.25q-0.3125 -0.140625 -0.875 -0.296875q-0.421875 -0.125 -0.78125 -0.28125q-0.359375 -0.15625 -0.625 -0.375q-0.25 -0.21875 -0.40625 -0.5q-0.140625 -0.296875 -0.140625 -0.6875q0 -0.265625 0.125 -0.578125q0.125 -0.3125 0.40625 -0.578125q0.296875 -0.265625 0.78125 -0.4375q0.5 -0.171875 1.234375 -0.171875q0.375 0 0.8125 0.046875q0.453125 0.03125 0.9375 0.125l0 0.96875q-0.515625 -0.125 -0.96875 -0.1875q-0.453125 -0.0625 -0.78125 -0.0625q-0.40625 0 -0.6875 0.0625q-0.265625 0.0625 -0.4375 0.171875q-0.171875 0.109375 -0.25 0.25q-0.0625 0.140625 -0.0625 0.3125q0 0.171875 0.0625 0.3125q0.0625 0.125 0.234375 0.25q0.171875 0.125 0.484375 0.265625q0.328125 0.125 0.828125 0.265625q0.546875 0.15625 0.921875 0.34375q0.390625 0.171875 0.625 0.390625q0.234375 0.21875 0.328125 0.484375q0.109375 0.265625 0.109375 0.625z" fill-rule="nonzero"/><path fill="#000000" fill-opacity="0.0" d="m117.99475 398.25723l43.779526 0l0 34.740143l-43.779526 0z" fill-rule="evenodd"/><path fill="#000000" d="m133.276 413.80783q0 0.5 -0.1875 0.984375q-0.1875 0.484375 -0.578125 0.875q-0.390625 0.375 -1.0 0.625q-0.59375 0.234375 -1.4375 0.234375l-1.0 0l0 2.890625l-1.109375 0l0 -8.078125l2.28125 0q0.59375 0 1.140625 0.140625q0.5625 0.125 0.96875 0.421875q0.421875 0.296875 0.671875 0.765625q0.25 0.46875 0.25 1.140625zm-1.140625 0.046875q0 -0.765625 -0.515625 -1.171875q-0.515625 -0.421875 -1.421875 -0.421875l-1.125 0l0 3.3125l1.03125 0q0.96875 0 1.5 -0.421875q0.53125 -0.421875 0.53125 -1.296875zm8.442841 1.46875q0 1.09375 -0.265625 1.890625q-0.25 0.78125 -0.6875 1.296875q-0.4375 0.515625 -1.03125 0.765625q-0.578125 0.25 -1.21875 0.25q-0.78125 0 -1.359375 -0.28125q-0.578125 -0.28125 -0.96875 -0.8125q-0.375 -0.53125 -0.5625 -1.296875q-0.171875 -0.765625 -0.171875 -1.71875q0 -1.078125 0.25 -1.859375q0.25 -0.796875 0.6875 -1.3125q0.4375 -0.515625 1.015625 -0.765625q0.578125 -0.25 1.234375 -0.25q0.765625 0 1.34375 0.28125q0.578125 0.28125 0.953125 0.8125q0.390625 0.53125 0.578125 1.296875q0.203125 0.75 0.203125 1.703125zm-1.15625 0.078125q0 -0.703125 -0.109375 -1.296875q-0.09375 -0.59375 -0.34375 -1.015625q-0.234375 -0.421875 -0.625 -0.65625q-0.375 -0.234375 -0.90625 -0.234375q-0.53125 0 -0.90625 0.25q-0.359375 0.25 -0.609375 0.6875q-0.234375 0.421875 -0.359375 1.0q-0.109375 0.578125 -0.109375 1.21875q0 0.71875 0.109375 1.3125q0.109375 0.59375 0.34375 1.015625q0.234375 0.421875 0.609375 0.65625q0.390625 0.234375 0.921875 0.234375q0.515625 0 0.890625 -0.25q0.375 -0.25 0.609375 -0.671875q0.25 -0.4375 0.359375 -1.015625q0.125 -0.578125 0.125 -1.234375zm7.7709656 -1.59375q0 0.5 -0.1875 0.984375q-0.1875 0.484375 -0.578125 0.875q-0.390625 0.375 -1.0 0.625q-0.59375 0.234375 -1.4375 0.234375l-1.0 0l0 2.890625l-1.109375 0l0 -8.078125l2.28125 0q0.59375 0 1.140625 0.140625q0.5625 0.125 0.96875 0.421875q0.421875 0.296875 0.671875 0.765625q0.25 0.46875 0.25 1.140625zm-1.140625 0.046875q0 -0.765625 -0.515625 -1.171875q-0.515625 -0.421875 -1.421875 -0.421875l-1.125 0l0 3.3125l1.03125 0q0.96875 0 1.5 -0.421875q0.53125 -0.421875 0.53125 -1.296875z" fill-rule="nonzero"/><path fill="#000000" fill-opacity="0.0" d="m643.9869 398.25723l50.393677 0l0 34.740143l-50.393677 0z" fill-rule="evenodd"/><path fill="#000000" d="m659.2681 413.80783q0 0.5 -0.1875 0.984375q-0.1875 0.484375 -0.578125 0.875q-0.390625 0.375 -1.0 0.625q-0.59375 0.234375 -1.4375 0.234375l-1.0 0l0 2.890625l-1.109375 0l0 -8.078125l2.28125 0q0.59375 0 1.140625 0.140625q0.5625 0.125 0.96875 0.421875q0.421875 0.296875 0.671875 0.765625q0.25 0.46875 0.25 1.140625zm-1.140625 0.046875q0 -0.765625 -0.515625 -1.171875q-0.515625 -0.421875 -1.421875 -0.421875l-1.125 0l0 3.3125l1.03125 0q0.96875 0 1.5 -0.421875q0.53125 -0.421875 0.53125 -1.296875zm8.114685 2.75q0 0.671875 -0.1875 1.21875q-0.1875 0.53125 -0.5625 0.921875q-0.359375 0.375 -0.890625 0.578125q-0.53125 0.203125 -1.21875 0.203125q-0.75 0 -1.28125 -0.1875q-0.515625 -0.203125 -0.859375 -0.5625q-0.328125 -0.359375 -0.484375 -0.859375q-0.140625 -0.515625 -0.140625 -1.140625l0 -5.4375l1.109375 0l0 5.34375q0 0.484375 0.078125 0.84375q0.09375 0.359375 0.296875 0.59375q0.203125 0.234375 0.53125 0.359375q0.328125 0.125 0.796875 0.125q0.875 0 1.28125 -0.5q0.421875 -0.515625 0.421875 -1.4375l0 -5.328125l1.109375 0l0 5.265625zm6.817871 0.625q0 0.578125 -0.234375 1.015625q-0.234375 0.421875 -0.65625 0.71875q-0.421875 0.28125 -1.015625 0.421875q-0.578125 0.140625 -1.296875 0.140625q-0.3125 0 -0.640625 -0.03125q-0.3125 -0.015625 -0.609375 -0.0625q-0.28125 -0.03125 -0.546875 -0.078125q-0.265625 -0.046875 -0.46875 -0.109375l0 -1.0625q0.46875 0.171875 1.046875 0.28125q0.578125 0.09375 1.3125 0.09375q0.53125 0 0.890625 -0.078125q0.375 -0.09375 0.609375 -0.25q0.25 -0.171875 0.359375 -0.40625q0.109375 -0.234375 0.109375 -0.53125q0 -0.328125 -0.1875 -0.5625q-0.1875 -0.234375 -0.484375 -0.40625q-0.296875 -0.1875 -0.671875 -0.328125q-0.375 -0.15625 -0.78125 -0.3125q-0.390625 -0.171875 -0.765625 -0.359375q-0.375 -0.1875 -0.671875 -0.4375q-0.296875 -0.265625 -0.484375 -0.609375q-0.1875 -0.34375 -0.1875 -0.828125q0 -0.40625 0.171875 -0.8125q0.171875 -0.40625 0.53125 -0.71875q0.375 -0.3125 0.9375 -0.5q0.578125 -0.1875 1.375 -0.1875q0.203125 0 0.4375 0.015625q0.234375 0.015625 0.484375 0.0625q0.25 0.03125 0.484375 0.078125q0.234375 0.03125 0.4375 0.078125l0 1.0q-0.46875 -0.140625 -0.953125 -0.203125q-0.46875 -0.078125 -0.921875 -0.078125q-0.9375 0 -1.390625 0.3125q-0.4375 0.3125 -0.4375 0.84375q0 0.328125 0.171875 0.5625q0.1875 0.234375 0.484375 0.421875q0.296875 0.1875 0.671875 0.34375q0.390625 0.140625 0.78125 0.3125q0.390625 0.15625 0.765625 0.34375q0.390625 0.1875 0.6875 0.453125q0.296875 0.265625 0.46875 0.625q0.1875 0.34375 0.1875 0.828125zm7.083435 2.1875l-1.109375 0l0 -3.703125l-3.390625 0l0 3.703125l-1.09375 0l0 -8.078125l1.09375 0l0 3.421875l3.390625 0l0 -3.421875l1.109375 0l0 8.078125z" fill-rule="nonzero"/><path fill="#000000" fill-opacity="0.0" d="m118.480316 223.56168l-0.09449005 209.5748" fill-rule="evenodd"/><path stroke="#000000" stroke-width="1.0" stroke-linejoin="round" stroke-linecap="butt" d="m118.480316 223.56168l-0.09449005 209.5748" fill-rule="evenodd"/><path fill="#000000" fill-opacity="0.0" d="m117.99475 432.9987l160.94489 1.4173279" fill-rule="evenodd"/><path stroke="#000000" stroke-width="1.0" stroke-linejoin="round" stroke-linecap="butt" d="m117.99475 432.9987l154.9451 1.364502" fill-rule="evenodd"/><path fill="#000000" stroke="#000000" stroke-width="1.0" stroke-linecap="butt" d="m272.92532 436.01483l4.5524597 -1.6116943l-4.5233765 -1.6916199z" fill-rule="evenodd"/><path fill="#000000" fill-opacity="0.0" d="m635.81366 220.28215l2.1732178 216.34645" fill-rule="evenodd"/><path stroke="#000000" stroke-width="1.0" stroke-linejoin="round" stroke-linecap="butt" d="m635.81366 220.28215l2.1732178 216.34645" fill-rule="evenodd"/><path fill="#000000" fill-opacity="0.0" d="m638.51447 436.7467l-203.4331 -2.3306885" fill-rule="evenodd"/><path stroke="#000000" stroke-width="1.0" stroke-linejoin="round" stroke-linecap="butt" d="m638.51447 436.7467l-197.4335 -2.261963" fill-rule="evenodd"/><path fill="#000000" stroke="#000000" stroke-width="1.0" stroke-linecap="butt" d="m441.09988 432.83313l-4.5567017 1.5996399l4.51886 1.7036133z" fill-rule="evenodd"/><path fill="#000000" fill-opacity="0.0" d="m377.14697 87.92126l0 87.77953" fill-rule="evenodd"/><path stroke="#000000" stroke-width="1.0" stroke-linejoin="round" stroke-linecap="butt" d="m377.14697 87.92126l0 81.77953" fill-rule="evenodd"/><path fill="#000000" stroke="#000000" stroke-width="1.0" stroke-linecap="butt" d="m375.49524 169.70079l1.6517334 4.538101l1.6517334 -4.538101z" fill-rule="evenodd"/><path fill="#000000" fill-opacity="0.0" d="m377.14697 87.92126l-258.67715 87.77953" fill-rule="evenodd"/><path stroke="#000000" stroke-width="1.0" stroke-linejoin="round" stroke-linecap="butt" d="m377.14697 87.92126l-252.99538 85.85148" fill-rule="evenodd"/><path fill="#000000" stroke="#000000" stroke-width="1.0" stroke-linecap="butt" d="m123.62082 172.2086l-3.766632 3.0224152l4.8281784 0.10585022z" fill-rule="evenodd"/><path fill="#000000" fill-opacity="0.0" d="m377.14697 87.92126l258.6772 84.47245" fill-rule="evenodd"/><path stroke="#000000" stroke-width="1.0" stroke-linejoin="round" stroke-linecap="butt" d="m377.14697 87.92126l252.97357 82.6099" fill-rule="evenodd"/><path fill="#000000" stroke="#000000" stroke-width="1.0" stroke-linecap="butt" d="m629.60785 172.1013l4.826599 -0.16140747l-3.8011475 -2.9788666z" fill-rule="evenodd"/></g></svg>