<svg version="1.1" viewBox="0.0 0.0 435.26509186351706 350.34645669291336" fill="none" stroke="none" stroke-linecap="square" stroke-miterlimit="10" xmlns:xlink="http://www.w3.org/1999/xlink" xmlns="http://www.w3.org/2000/svg"><clipPath id="p.0"><path d="m0 0l435.2651 0l0 350.34647l-435.2651 0l0 -350.34647z" clip-rule="nonzero"/></clipPath><g clip-path="url(#p.0)"><path fill="#000000" fill-opacity="0.0" d="m0 0l435.2651 0l0 350.34647l-435.2651 0z" fill-rule="evenodd"/><path fill="#cfe2f3" d="m118.02887 51.582676l161.5433 0l0 29.228344l-161.5433 0z" fill-rule="evenodd"/><path stroke="#000000" stroke-width="1.0" stroke-linejoin="round" stroke-linecap="butt" d="m118.02887 51.582676l161.5433 0l0 29.228344l-161.5433 0z" fill-rule="evenodd"/><path fill="#000000" d="m166.61302 72.05685l0 -11.453121l1.515625 0l0 10.093746l5.640625 0l0 1.359375l-7.15625 0zm14.1953125 -1.03125q-0.78125 0.671875 -1.5 0.953125q-0.71875 0.265625 -1.546875 0.265625q-1.375 0 -2.109375 -0.671875q-0.734375 -0.671875 -0.734375 -1.703125q0 -0.609375 0.28125 -1.109375q0.28125 -0.515625 0.71875 -0.8125q0.453125 -0.3125 1.015625 -0.46875q0.421875 -0.109375 1.25 -0.203125q1.703125 -0.203125 2.515625 -0.484375q0 -0.296875 0 -0.375q0 -0.859375 -0.390625 -1.203125q-0.546875 -0.484375 -1.609375 -0.484375q-0.984375 0 -1.46875 0.359375q-0.46875 0.34375 -0.6875 1.21875l-1.375 -0.1875q0.1875 -0.875 0.609375 -1.421875q0.4375 -0.546875 1.25 -0.8281212q0.8125 -0.296875 1.875 -0.296875q1.0625 0 1.71875 0.25q0.671875 0.24999619 0.984375 0.6249962q0.3125 0.375 0.4375 0.953125q0.078125 0.359375 0.078125 1.296875l0 1.875q0 1.96875 0.078125 2.484375q0.09375 0.515625 0.359375 1.0l-1.46875 0q-0.21875 -0.4375 -0.28125 -1.03125zm-0.109375 -3.140625q-0.765625 0.3125 -2.296875 0.53125q-0.875 0.125 -1.234375 0.28125q-0.359375 0.15625 -0.5625 0.46875q-0.1875 0.296875 -0.1875 0.65625q0 0.5625 0.421875 0.9375q0.4375 0.375 1.25 0.375q0.8125 0 1.4375 -0.34375q0.640625 -0.359375 0.9375 -0.984375q0.234375 -0.46875 0.234375 -1.40625l0 -0.515625zm9.0390625 4.171875l0 -1.21875q-0.96875 1.40625 -2.640625 1.40625q-0.734375 0 -1.375 -0.28125q-0.625 -0.28125 -0.9375 -0.703125q-0.3125 -0.4375 -0.4375 -1.046875q-0.078125 -0.421875 -0.078125 -1.3125l0 -5.140621l1.40625 0l0 4.593746q0 1.109375 0.078125 1.484375q0.140625 0.5625 0.5625 0.875q0.4375 0.3125 1.0625 0.3125q0.640625 0 1.1875 -0.3125q0.5625 -0.328125 0.78125 -0.890625q0.234375 -0.5625 0.234375 -1.625l0 -4.437496l1.40625 0l0 8.296871l-1.25 0zm3.4609375 0l0 -8.296871l1.265625 0l0 1.1718712q0.90625 -1.3593712 2.640625 -1.3593712q0.75 0 1.375 0.265625q0.625 0.2656212 0.9375 0.7031212q0.3125 0.4375 0.4375 1.046875q0.078125 0.390625 0.078125 1.359375l0 5.109375l-1.40625 0l0 -5.046875q0 -0.859375 -0.171875 -1.28125q-0.15625 -0.4375 -0.578125 -0.6875q-0.40625 -0.25 -0.96875 -0.25q-0.90625 0 -1.5625 0.578125q-0.640625 0.5625 -0.640625 2.15625l0 4.53125l-1.40625 0zm14.3046875 -3.046875l1.390625 0.1875q-0.234375 1.421875 -1.171875 2.234375q-0.921875 0.8125 -2.28125 0.8125q-1.703125 0 -2.75 -1.109375q-1.03125 -1.125 -1.03125 -3.203125q0 -1.34375 0.4375 -2.34375q0.453125 -1.015625 1.359375 -1.515625q0.921875 -0.4999962 1.984375 -0.4999962q1.359375 0 2.21875 0.6874962q0.859375 0.671875 1.09375 1.9375l-1.359375 0.203125q-0.203125 -0.828125 -0.703125 -1.25q-0.484375 -0.421875 -1.1875 -0.421875q-1.0625 0 -1.734375 0.765625q-0.65625 0.75 -0.65625 2.40625q0 1.671875 0.640625 2.4375q0.640625 0.75 1.671875 0.75q0.828125 0 1.375 -0.5q0.5625 -0.515625 0.703125 -1.578125zm2.59375 3.046875l0 -11.453121l1.40625 0l0 4.109371q0.984375 -1.1406212 2.484375 -1.1406212q0.921875 0 1.59375 0.359375q0.6875 0.3593712 0.96875 0.9999962q0.296875 0.640625 0.296875 1.859375l0 5.265625l-1.40625 0l0 -5.265625q0 -1.046875 -0.453125 -1.53125q-0.453125 -0.484375 -1.296875 -0.484375q-0.625 0 -1.171875 0.328125q-0.546875 0.328125 -0.78125 0.890625q-0.234375 0.546875 -0.234375 1.515625l0 4.546875l-1.40625 0zm14.5703125 -2.671875l1.453125 0.171875q-0.34375 1.28125 -1.28125 1.984375q-0.921875 0.703125 -2.359375 0.703125q-1.828125 0 -2.890625 -1.125q-1.0625 -1.125 -1.0625 -3.140625q0 -2.09375 1.078125 -3.25q1.078125 -1.1562462 2.796875 -1.1562462q1.65625 0 2.703125 1.1406212q1.0625 1.125 1.0625 3.171875q0 0.125 0 0.375l-6.1875 0q0.078125 1.375 0.765625 2.109375q0.703125 0.71875 1.734375 0.71875q0.78125 0 1.328125 -0.40625q0.546875 -0.40625 0.859375 -1.296875zm-4.609375 -2.28125l4.625 0q-0.09375 -1.046875 -0.53125 -1.5625q-0.671875 -0.8125 -1.734375 -0.8125q-0.96875 0 -1.640625 0.65625q-0.65625 0.640625 -0.71875 1.71875zm7.8203125 4.953125l0 -8.296871l1.265625 0l0 1.2499962q0.484375 -0.875 0.890625 -1.1562462q0.40625 -0.28125 0.90625 -0.28125q0.703125 0 1.4375 0.4531212l-0.484375 1.296875q-0.515625 -0.296875 -1.03125 -0.296875q-0.453125 0 -0.828125 0.28125q-0.359375 0.265625 -0.515625 0.765625q-0.234375 0.75 -0.234375 1.640625l0 4.34375l-1.40625 0z" fill-rule="nonzero"/><path fill="#000000" fill-opacity="0.0" d="m204.14174 198.07086l103.71654 0l0 34.740158l-103.71654 0z" fill-rule="evenodd"/><path fill="#000000" d="m219.42299 216.80899q0 0.59375 -0.234375 1.046875q-0.21875 0.4375 -0.640625 0.75q-0.40625 0.296875 -1.0 0.46875q-0.59375 0.15625 -1.3125 0.15625l-2.125 0l0 -8.078125l2.3125 0q2.703125 0 2.703125 1.96875q0 0.65625 -0.3125 1.125q-0.3125 0.46875 -1.015625 0.703125q0.328125 0.046875 0.625 0.203125q0.296875 0.140625 0.515625 0.390625q0.21875 0.234375 0.34375 0.5625q0.140625 0.3125 0.140625 0.703125zm-1.4375 -3.546875q0 -0.234375 -0.078125 -0.453125q-0.0625 -0.234375 -0.25 -0.390625q-0.1875 -0.15625 -0.5 -0.25q-0.3125 -0.09375 -0.796875 -0.09375l-1.140625 0l0 2.53125l1.09375 0q0.375 0 0.6875 -0.078125q0.3125 -0.078125 0.53125 -0.234375q0.21875 -0.171875 0.328125 -0.421875q0.125 -0.265625 0.125 -0.609375zm0.265625 3.59375q0 -0.3125 -0.140625 -0.5625q-0.125 -0.25 -0.375 -0.40625q-0.234375 -0.171875 -0.59375 -0.265625q-0.359375 -0.09375 -0.796875 -0.09375l-1.125 0l0 2.78125l1.15625 0q0.953125 0 1.40625 -0.34375q0.46875 -0.359375 0.46875 -1.109375zm8.349091 2.375l-1.25 0l-1.203125 -2.578125q-0.140625 -0.296875 -0.28125 -0.484375q-0.140625 -0.203125 -0.3125 -0.3125q-0.15625 -0.125 -0.359375 -0.171875q-0.1875 -0.046875 -0.421875 -0.046875l-0.515625 0l0 3.59375l-1.109375 0l0 -8.078125l2.171875 0q0.703125 0 1.203125 0.15625q0.515625 0.15625 0.828125 0.4375q0.328125 0.265625 0.484375 0.671875q0.15625 0.390625 0.15625 0.859375q0 0.375 -0.125 0.71875q-0.109375 0.328125 -0.328125 0.609375q-0.21875 0.28125 -0.546875 0.484375q-0.3125 0.1875 -0.734375 0.296875q0.34375 0.109375 0.578125 0.40625q0.234375 0.296875 0.484375 0.78125l1.28125 2.65625zm-1.765625 -5.859375q0 -0.640625 -0.40625 -0.96875q-0.40625 -0.328125 -1.140625 -0.328125l-1.03125 0l0 2.671875l0.890625 0q0.390625 0 0.6875 -0.078125q0.3125 -0.09375 0.53125 -0.265625q0.234375 -0.1875 0.34375 -0.4375q0.125 -0.265625 0.125 -0.59375zm8.505341 0.25q0 0.5 -0.1875 0.984375q-0.1875 0.484375 -0.578125 0.875q-0.390625 0.375 -1.0 0.625q-0.59375 0.234375 -1.4375 0.234375l-1.0 0l0 2.890625l-1.109375 0l0 -8.078125l2.28125 0q0.59375 0 1.140625 0.140625q0.5625 0.125 0.96875 0.421875q0.421875 0.296875 0.671875 0.765625q0.25 0.46875 0.25 1.140625zm-1.140625 0.046875q0 -0.765625 -0.515625 -1.171875q-0.515625 -0.421875 -1.421875 -0.421875l-1.125 0l0 3.3125l1.03125 0q0.96875 0 1.5 -0.421875q0.53125 -0.421875 0.53125 -1.296875zm8.442841 1.46875q0 1.09375 -0.265625 1.890625q-0.25 0.78125 -0.6875 1.296875q-0.4375 0.515625 -1.03125 0.765625q-0.578125 0.25 -1.21875 0.25q-0.78125 0 -1.359375 -0.28125q-0.578125 -0.28125 -0.96875 -0.8125q-0.375 -0.53125 -0.5625 -1.296875q-0.171875 -0.765625 -0.171875 -1.71875q0 -1.078125 0.25 -1.859375q0.25 -0.796875 0.6875 -1.3125q0.4375 -0.515625 1.015625 -0.765625q0.578125 -0.25 1.234375 -0.25q0.765625 0 1.34375 0.28125q0.578125 0.28125 0.953125 0.8125q0.390625 0.53125 0.578125 1.296875q0.203125 0.75 0.203125 1.703125zm-1.15625 0.078125q0 -0.703125 -0.109375 -1.296875q-0.09375 -0.59375 -0.34375 -1.015625q-0.234375 -0.421875 -0.625 -0.65625q-0.375 -0.234375 -0.90625 -0.234375q-0.53125 0 -0.90625 0.25q-0.359375 0.25 -0.609375 0.6875q-0.234375 0.421875 -0.359375 1.0q-0.109375 0.578125 -0.109375 1.21875q0 0.71875 0.109375 1.3125q0.109375 0.59375 0.34375 1.015625q0.234375 0.421875 0.609375 0.65625q0.390625 0.234375 0.921875 0.234375q0.515625 0 0.890625 -0.25q0.375 -0.25 0.609375 -0.671875q0.25 -0.4375 0.359375 -1.015625q0.125 -0.578125 0.125 -1.234375zm7.7709656 -1.59375q0 0.5 -0.1875 0.984375q-0.1875 0.484375 -0.578125 0.875q-0.390625 0.375 -1.0 0.625q-0.59375 0.234375 -1.4375 0.234375l-1.0 0l0 2.890625l-1.109375 0l0 -8.078125l2.28125 0q0.59375 0 1.140625 0.140625q0.5625 0.125 0.96875 0.421875q0.421875 0.296875 0.671875 0.765625q0.25 0.46875 0.25 1.140625zm-1.140625 0.046875q0 -0.765625 -0.515625 -1.171875q-0.515625 -0.421875 -1.421875 -0.421875l-1.125 0l0 3.3125l1.03125 0q0.96875 0 1.5 -0.421875q0.53125 -0.421875 0.53125 -1.296875zm9.448181 2.59375q0 -0.671875 0.171875 -1.265625q0.1875 -0.609375 0.54685974 -1.0625q0.375 -0.453125 0.9375 -0.71875q0.578125 -0.265625 1.375 -0.265625q0.3125 0 0.625 0.046875q0.3125 0.046875 0.65625 0.15625l0.953125 -0.234375l0 8.84375l-1.078125 0l0 -2.34375l0.046875 -1.328125q-0.875 1.25 -2.078125 1.25q-0.546875 0 -0.953125 -0.21875q-0.390625 -0.21875 -0.671875 -0.625q-0.26560974 -0.421875 -0.40623474 -0.984375q-0.125 -0.5625 -0.125 -1.25zm1.1093597 -0.078125q0 0.53125 0.0625 0.953125q0.078125 0.40625 0.234375 0.6875q0.171875 0.28125 0.40625 0.4375q0.234375 0.15625 0.5625 0.15625q0.40625 0 0.859375 -0.359375q0.453125 -0.359375 0.953125 -1.078125l0 -2.890625q-0.25 -0.109375 -0.5625 -0.1875q-0.3125 -0.078125 -0.65625 -0.078125q-0.921875 0 -1.390625 0.609375q-0.46875 0.59375 -0.46875 1.75zm11.599091 -0.984375q0 0.921875 -0.1875 1.6875q-0.1875 0.765625 -0.5625 1.3125q-0.375 0.546875 -0.9375 0.84375q-0.5625 0.296875 -1.3125 0.296875q-0.65625 0 -1.1875 -0.234375q-0.53125 -0.25 -0.90625 -0.75q-0.375 -0.515625 -0.578125 -1.296875q-0.203125 -0.78125 -0.203125 -1.859375q0 -0.9375 0.1875 -1.703125q0.1875 -0.765625 0.5625 -1.3125q0.375 -0.546875 0.9375 -0.84375q0.5625 -0.296875 1.3125 -0.296875q0.640625 0 1.171875 0.25q0.53125 0.234375 0.90625 0.75q0.375 0.5 0.578125 1.296875q0.21875 0.78125 0.21875 1.859375zm-1.09375 0.03125q0 -0.203125 -0.015625 -0.40625q-0.015625 -0.21875 -0.03125 -0.40625l-3.421875 2.53125q0.09375 0.328125 0.234375 0.59375q0.140625 0.265625 0.34375 0.46875q0.203125 0.1875 0.453125 0.296875q0.265625 0.109375 0.59375 0.109375q0.421875 0 0.75 -0.203125q0.34375 -0.203125 0.578125 -0.59375q0.25 -0.40625 0.375 -1.0q0.140625 -0.609375 0.140625 -1.390625zm-3.703125 -0.078125q0 0.203125 0 0.390625q0.015625 0.1875 0.03125 0.375l3.421875 -2.53125q-0.09375 -0.3125 -0.234375 -0.578125q-0.140625 -0.265625 -0.34375 -0.453125q-0.203125 -0.1875 -0.453125 -0.28125q-0.25 -0.109375 -0.5625 -0.109375q-0.421875 0 -0.765625 0.203125q-0.34375 0.203125 -0.59375 0.609375q-0.234375 0.40625 -0.375 1.0q-0.125 0.59375 -0.125 1.375zm8.770966 2.125q0.203125 0 0.390625 0.09375q0.1875 0.078125 0.328125 0.21875q0.140625 0.140625 0.21875 0.328125q0.078125 0.1875 0.078125 0.40625q0 0.203125 -0.078125 0.390625q-0.078125 0.1875 -0.21875 0.328125q-0.140625 0.140625 -0.328125 0.21875q-0.1875 0.078125 -0.390625 0.078125q-0.21875 0 -0.40625 -0.078125q-0.1875 -0.078125 -0.328125 -0.21875q-0.140625 -0.140625 -0.21875 -0.328125q-0.078125 -0.1875 -0.078125 -0.390625q0 -0.21875 0.078125 -0.40625q0.078125 -0.1875 0.21875 -0.328125q0.140625 -0.140625 0.328125 -0.21875q0.1875 -0.09375 0.40625 -0.09375zm6.9584656 0q0.203125 0 0.390625 0.09375q0.1875 0.078125 0.328125 0.21875q0.140625 0.140625 0.21875 0.328125q0.078125 0.1875 0.078125 0.40625q0 0.203125 -0.078125 0.390625q-0.078125 0.1875 -0.21875 0.328125q-0.140625 0.140625 -0.328125 0.21875q-0.1875 0.078125 -0.390625 0.078125q-0.21875 0 -0.40625 -0.078125q-0.1875 -0.078125 -0.328125 -0.21875q-0.140625 -0.140625 -0.21875 -0.328125q-0.078125 -0.1875 -0.078125 -0.390625q0 -0.21875 0.078125 -0.40625q0.078125 -0.1875 0.21875 -0.328125q0.140625 -0.140625 0.328125 -0.21875q0.1875 -0.09375 0.40625 -0.09375zm4.1928406 -1.015625q0 -0.671875 0.171875 -1.265625q0.1875 -0.609375 0.546875 -1.0625q0.375 -0.453125 0.9375 -0.71875q0.578125 -0.265625 1.375 -0.265625q0.3125 0 0.625 0.046875q0.3125 0.046875 0.65625 0.15625l0.953125 -0.234375l0 8.84375l-1.078125 0l0 -2.34375l0.046875 -1.328125q-0.875 1.25 -2.078125 1.25q-0.546875 0 -0.953125 -0.21875q-0.390625 -0.21875 -0.671875 -0.625q-0.265625 -0.421875 -0.40625 -0.984375q-0.125 -0.5625 -0.125 -1.25zm1.109375 -0.078125q0 0.53125 0.0625 0.953125q0.078125 0.40625 0.234375 0.6875q0.171875 0.28125 0.40625 0.4375q0.234375 0.15625 0.5625 0.15625q0.40625 0 0.859375 -0.359375q0.453125 -0.359375 0.953125 -1.078125l0 -2.890625q-0.25 -0.109375 -0.5625 -0.1875q-0.3125 -0.078125 -0.65625 -0.078125q-0.921875 0 -1.390625 0.609375q-0.46875 0.59375 -0.46875 1.75zm11.833466 3.046875l-1.078125 0l-0.15625 -5.03125l-0.0625 -1.9375l-0.390625 1.125l-1.1875 3.21875l-0.765625 0l-1.125 -3.09375l-0.375 -1.25l-0.03125 2.015625l-0.140625 4.953125l-1.046875 0l0.40625 -8.078125l1.296875 0l1.09375 3.046875l0.34375 1.015625l0.34375 -1.015625l1.140625 -3.046875l1.34375 0l0.390625 8.078125z" fill-rule="nonzero"/><path fill="#000000" fill-opacity="0.0" d="m209.98294 205.3937l91.37009 0l0 20.094482l-91.37009 0z" fill-rule="evenodd"/><path stroke="#ff0000" stroke-width="1.0" stroke-linejoin="round" stroke-linecap="butt" d="m209.98294 205.3937l91.37009 0l0 20.094482l-91.37009 0z" fill-rule="evenodd"/><path fill="#cfe2f3" d="m153.11023 244.61636l0 0c0 -8.305771 20.455658 -15.03894 45.68898 -15.03894c25.233322 0 45.68898 6.7331696 45.68898 15.03894l0 60.15573c0 8.305756 -20.455658 15.03894 -45.68898 15.03894c-25.233322 0 -45.68898 -6.733185 -45.68898 -15.03894z" fill-rule="evenodd"/><path fill="#000000" fill-opacity="0.0" d="m244.48819 244.61636l0 0c0 8.305771 -20.455658 15.03894 -45.68898 15.03894c-25.233322 0 -45.68898 -6.7331696 -45.68898 -15.03894" fill-rule="evenodd"/><path fill="#000000" fill-opacity="0.0" d="m153.11023 244.61636l0 0c0 -8.305771 20.455658 -15.03894 45.68898 -15.03894c25.233322 0 45.68898 6.7331696 45.68898 15.03894l0 60.15573c0 8.305756 -20.455658 15.03894 -45.68898 15.03894c-25.233322 0 -45.68898 -6.733185 -45.68898 -15.03894z" fill-rule="evenodd"/><path stroke="#000000" stroke-width="1.0" stroke-linejoin="round" stroke-linecap="butt" d="m244.48819 244.61636l0 0c0 8.305771 -20.455658 15.03894 -45.68898 15.03894c-25.233322 0 -45.68898 -6.7331696 -45.68898 -15.03894" fill-rule="evenodd"/><path stroke="#000000" stroke-width="1.0" stroke-linejoin="round" stroke-linecap="butt" d="m153.11023 244.61636l0 0c0 -8.305771 20.455658 -15.03894 45.68898 -15.03894c25.233322 0 45.68898 6.7331696 45.68898 15.03894l0 60.15573c0 8.305756 -20.455658 15.03894 -45.68898 15.03894c-25.233322 0 -45.68898 -6.733185 -45.68898 -15.03894z" fill-rule="evenodd"/><path fill="#000000" d="m179.61171 288.0737l0 -11.453125l5.078125 0q1.53125 0 2.328125 0.3125q0.796875 0.296875 1.265625 1.078125q0.484375 0.78125 0.484375 1.734375q0 1.21875 -0.796875 2.0625q-0.78125 0.828125 -2.4375 1.046875q0.609375 0.296875 0.921875 0.578125q0.65625 0.609375 1.25 1.515625l2.0 3.125l-1.90625 0l-1.515625 -2.390625q-0.671875 -1.03125 -1.109375 -1.578125q-0.421875 -0.546875 -0.765625 -0.765625q-0.328125 -0.21875 -0.6875 -0.296875q-0.25 -0.0625 -0.84375 -0.0625l-1.75 0l0 5.09375l-1.515625 0zm1.515625 -6.40625l3.25 0q1.046875 0 1.625 -0.203125q0.59375 -0.21875 0.890625 -0.6875q0.3125 -0.484375 0.3125 -1.03125q0 -0.8125 -0.59375 -1.328125q-0.59375 -0.53125 -1.859375 -0.53125l-3.625 0l0 3.78125zm15.5078125 3.734375l1.453125 0.171875q-0.34375 1.28125 -1.28125 1.984375q-0.921875 0.703125 -2.359375 0.703125q-1.828125 0 -2.890625 -1.125q-1.0625 -1.125 -1.0625 -3.140625q0 -2.09375 1.078125 -3.25q1.078125 -1.15625 2.796875 -1.15625q1.65625 0 2.703125 1.140625q1.0625 1.125 1.0625 3.171875q0 0.125 0 0.375l-6.1875 0q0.078125 1.375 0.765625 2.109375q0.703125 0.71875 1.734375 0.71875q0.78125 0 1.328125 -0.40625q0.546875 -0.40625 0.859375 -1.296875zm-4.609375 -2.28125l4.625 0q-0.09375 -1.046875 -0.53125 -1.5625q-0.671875 -0.8125 -1.734375 -0.8125q-0.96875 0 -1.640625 0.65625q-0.65625 0.640625 -0.71875 1.71875zm13.2109375 4.953125l0 -1.046875q-0.78125 1.234375 -2.3125 1.234375q-1.0 0 -1.828125 -0.546875q-0.828125 -0.546875 -1.296875 -1.53125q-0.453125 -0.984375 -0.453125 -2.25q0 -1.25 0.40625 -2.25q0.421875 -1.015625 1.25 -1.546875q0.828125 -0.546875 1.859375 -0.546875q0.75 0 1.328125 0.3125q0.59375 0.3125 0.953125 0.828125l0 -4.109375l1.40625 0l0 11.453125l-1.3125 0zm-4.4375 -4.140625q0 1.59375 0.671875 2.390625q0.671875 0.78125 1.578125 0.78125q0.921875 0 1.5625 -0.75q0.65625 -0.765625 0.65625 -2.3125q0 -1.703125 -0.65625 -2.5q-0.65625 -0.796875 -1.625 -0.796875q-0.9375 0 -1.5625 0.765625q-0.625 0.765625 -0.625 2.421875zm7.9609375 -5.703125l0 -1.609375l1.40625 0l0 1.609375l-1.40625 0zm0 9.84375l0 -8.296875l1.40625 0l0 8.296875l-1.40625 0zm2.9921875 -2.484375l1.390625 -0.21875q0.109375 0.84375 0.640625 1.296875q0.546875 0.4375 1.5 0.4375q0.96875 0 1.4375 -0.390625q0.46875 -0.40625 0.46875 -0.9375q0 -0.46875 -0.40625 -0.75q-0.296875 -0.1875 -1.4375 -0.46875q-1.546875 -0.390625 -2.15625 -0.671875q-0.59375 -0.296875 -0.90625 -0.796875q-0.296875 -0.5 -0.296875 -1.109375q0 -0.5625 0.25 -1.03125q0.25 -0.46875 0.6875 -0.78125q0.328125 -0.25 0.890625 -0.40625q0.578125 -0.171875 1.21875 -0.171875q0.984375 0 1.71875 0.28125q0.734375 0.28125 1.078125 0.765625q0.359375 0.46875 0.5 1.28125l-1.375 0.1875q-0.09375 -0.640625 -0.546875 -1.0q-0.453125 -0.359375 -1.265625 -0.359375q-0.96875 0 -1.390625 0.328125q-0.40625 0.3125 -0.40625 0.734375q0 0.28125 0.171875 0.5q0.171875 0.21875 0.53125 0.375q0.21875 0.078125 1.25 0.359375q1.484375 0.390625 2.078125 0.65625q0.59375 0.25 0.921875 0.734375q0.34375 0.484375 0.34375 1.203125q0 0.703125 -0.421875 1.328125q-0.40625 0.609375 -1.1875 0.953125q-0.765625 0.34375 -1.734375 0.34375q-1.625 0 -2.46875 -0.671875q-0.84375 -0.671875 -1.078125 -2.0z" fill-rule="nonzero"/><path fill="#cfe2f3" d="m144.5958 131.25722l108.409454 0l0 47.874023l-108.409454 0z" fill-rule="evenodd"/><path stroke="#000000" stroke-width="1.0" stroke-linejoin="round" stroke-linecap="butt" d="m144.5958 131.25722l108.409454 0l0 47.874023l-108.409454 0z" fill-rule="evenodd"/><path fill="#000000" d="m161.73021 161.05423l-3.03125 -11.453125l1.546875 0l1.75 7.5q0.28125 1.1875 0.484375 2.34375q0.4375 -1.828125 0.515625 -2.109375l2.171875 -7.734375l1.828125 0l1.640625 5.796875q0.625 2.15625 0.890625 4.046875q0.21875 -1.078125 0.578125 -2.484375l1.796875 -7.359375l1.515625 0l-3.140625 11.453125l-1.453125 0l-2.421875 -8.734375q-0.296875 -1.09375 -0.359375 -1.34375q-0.171875 0.796875 -0.328125 1.34375l-2.4375 8.734375l-1.546875 0zm12.109375 -4.15625q0 -2.296875 1.28125 -3.40625q1.078125 -0.921875 2.609375 -0.921875q1.71875 0 2.796875 1.125q1.09375 1.109375 1.09375 3.09375q0 1.59375 -0.484375 2.515625q-0.484375 0.921875 -1.40625 1.4375q-0.90625 0.5 -2.0 0.5q-1.734375 0 -2.8125 -1.109375q-1.078125 -1.125 -1.078125 -3.234375zm1.453125 0q0 1.59375 0.6875 2.390625q0.703125 0.796875 1.75 0.796875q1.046875 0 1.734375 -0.796875q0.703125 -0.796875 0.703125 -2.4375q0 -1.53125 -0.703125 -2.328125q-0.6875 -0.796875 -1.734375 -0.796875q-1.046875 0 -1.75 0.796875q-0.6875 0.78125 -0.6875 2.375zm7.9609375 4.15625l0 -8.296875l1.265625 0l0 1.25q0.484375 -0.875 0.890625 -1.15625q0.40625 -0.28125 0.90625 -0.28125q0.703125 0 1.4375 0.453125l-0.484375 1.296875q-0.515625 -0.296875 -1.03125 -0.296875q-0.453125 0 -0.828125 0.28125q-0.359375 0.265625 -0.515625 0.765625q-0.234375 0.75 -0.234375 1.640625l0 4.34375l-1.40625 0zm5.34375 0l0 -11.453125l1.40625 0l0 6.53125l3.328125 -3.375l1.828125 0l-3.171875 3.078125l3.484375 5.21875l-1.734375 0l-2.734375 -4.25l-1.0 0.953125l0 3.296875l-1.40625 0zm13.671875 -2.671875l1.453125 0.171875q-0.34375 1.28125 -1.28125 1.984375q-0.921875 0.703125 -2.359375 0.703125q-1.828125 0 -2.890625 -1.125q-1.0625 -1.125 -1.0625 -3.140625q0 -2.09375 1.078125 -3.25q1.078125 -1.15625 2.796875 -1.15625q1.65625 0 2.703125 1.140625q1.0625 1.125 1.0625 3.171875q0 0.125 0 0.375l-6.1875 0q0.078125 1.375 0.765625 2.109375q0.703125 0.71875 1.734375 0.71875q0.78125 0 1.328125 -0.40625q0.546875 -0.40625 0.859375 -1.296875zm-4.609375 -2.28125l4.625 0q-0.09375 -1.046875 -0.53125 -1.5625q-0.671875 -0.8125 -1.734375 -0.8125q-0.96875 0 -1.640625 0.65625q-0.65625 0.640625 -0.71875 1.71875zm7.8203125 4.953125l0 -8.296875l1.265625 0l0 1.25q0.484375 -0.875 0.890625 -1.15625q0.40625 -0.28125 0.90625 -0.28125q0.703125 0 1.4375 0.453125l-0.484375 1.296875q-0.515625 -0.296875 -1.03125 -0.296875q-0.453125 0 -0.828125 0.28125q-0.359375 0.265625 -0.515625 0.765625q-0.234375 0.75 -0.234375 1.640625l0 4.34375l-1.40625 0zm4.953125 -5.65625q0 -2.03125 0.40625 -3.265625q0.421875 -1.234375 1.25 -1.90625q0.828125 -0.671875 2.078125 -0.671875q0.921875 0 1.609375 0.375q0.703125 0.359375 1.15625 1.0625q0.453125 0.703125 0.703125 1.703125q0.265625 1.0 0.265625 2.703125q0 2.015625 -0.421875 3.265625q-0.40625 1.234375 -1.234375 1.921875q-0.828125 0.671875 -2.078125 0.671875q-1.65625 0 -2.609375 -1.203125q-1.125 -1.421875 -1.125 -4.65625zm1.4375 0q0 2.828125 0.65625 3.765625q0.671875 0.921875 1.640625 0.921875q0.96875 0 1.625 -0.9375q0.65625 -0.9375 0.65625 -3.75q0 -2.828125 -0.65625 -3.75q-0.65625 -0.9375 -1.640625 -0.9375q-0.96875 0 -1.546875 0.828125q-0.734375 1.046875 -0.734375 3.859375zm8.2421875 5.65625l0 -1.609375l1.609375 0l0 1.609375l-1.609375 0zm4.4453125 0l0 -1.609375l1.609375 0l0 1.609375l-1.609375 0zm4.2109375 0l0 -11.453125l1.5625 0l6.015625 8.984375l0 -8.984375l1.453125 0l0 11.453125l-1.5625 0l-6.015625 -9.0l0 9.0l-1.453125 0z" fill-rule="nonzero"/><path fill="#000000" fill-opacity="0.0" d="m198.80052 80.81102l0 50.456696" fill-rule="evenodd"/><path stroke="#000000" stroke-width="1.0" stroke-linejoin="round" stroke-linecap="butt" d="m198.80052 80.81102l0 44.456696" fill-rule="evenodd"/><path fill="#000000" stroke="#000000" stroke-width="1.0" stroke-linecap="butt" d="m197.14879 125.267715l1.6517334 4.538101l1.6517334 -4.538101z" fill-rule="evenodd"/><path fill="#000000" fill-opacity="0.0" d="m287.3281 38.401573l166.67715 0l0 50.078743l-166.67715 0z" fill-rule="evenodd"/><path fill="#000000" d="m297.29684 59.561573l0 -9.0625l1.21875 0l4.765625 7.109375l0 -7.109375l1.15625 0l0 9.0625l-1.234375 0l-4.765625 -7.125l0 7.125l-1.140625 0zm14.858673 -5.328125l-5.984375 0l0 -1.03125l5.984375 0l0 1.03125zm0 2.75l-5.984375 0l0 -1.03125l5.984375 0l0 1.03125zm5.8129272 0.171875l1.09375 0.140625q-0.171875 1.140625 -0.921875 1.78125q-0.734375 0.625 -1.796875 0.625q-1.359375 0 -2.171875 -0.875q-0.8125 -0.875 -0.8125 -2.515625q0 -1.0625 0.34375 -1.859375q0.359375 -0.8125 1.078125 -1.203125q0.71875 -0.40625 1.5625 -0.40625q1.0625 0 1.75 0.546875q0.6875 0.546875 0.875 1.53125l-1.078125 0.171875q-0.15625 -0.65625 -0.5625 -0.984375q-0.390625 -0.34375 -0.9375 -0.34375q-0.84375 0 -1.375 0.609375q-0.515625 0.59375 -0.515625 1.90625q0 1.3125 0.5 1.921875q0.515625 0.59375 1.328125 0.59375q0.65625 0 1.09375 -0.390625q0.4375 -0.40625 0.546875 -1.25zm1.640625 -0.875q0 -1.828125 1.015625 -2.703125q0.84375 -0.734375 2.0625 -0.734375q1.34375 0 2.203125 0.890625q0.859375 0.890625 0.859375 2.453125q0 1.265625 -0.375 2.0q-0.375 0.71875 -1.109375 1.125q-0.71875 0.390625 -1.578125 0.390625q-1.375 0 -2.234375 -0.875q-0.84375 -0.890625 -0.84375 -2.546875zm1.140625 0q0 1.265625 0.546875 1.890625q0.546875 0.625 1.390625 0.625q0.828125 0 1.375 -0.625q0.546875 -0.640625 0.546875 -1.921875q0 -1.21875 -0.5625 -1.84375q-0.546875 -0.640625 -1.359375 -0.640625q-0.84375 0 -1.390625 0.625q-0.546875 0.625 -0.546875 1.890625zm6.3044434 3.28125l0 -6.5625l1.0 0l0 0.9375q0.734375 -1.09375 2.09375 -1.09375q0.59375 0 1.09375 0.21875q0.5 0.21875 0.734375 0.5625q0.25 0.34375 0.359375 0.828125q0.0625 0.296875 0.0625 1.078125l0 4.03125l-1.109375 0l0 -3.984375q0 -0.6875 -0.140625 -1.015625q-0.125 -0.34375 -0.453125 -0.546875q-0.328125 -0.203125 -0.78125 -0.203125q-0.703125 0 -1.21875 0.453125q-0.515625 0.453125 -0.515625 1.71875l0 3.578125l-1.125 0zm11.320038 -2.40625l1.09375 0.140625q-0.171875 1.140625 -0.921875 1.78125q-0.734375 0.625 -1.796875 0.625q-1.359375 0 -2.171875 -0.875q-0.8125 -0.875 -0.8125 -2.515625q0 -1.0625 0.34375 -1.859375q0.359375 -0.8125 1.078125 -1.203125q0.71875 -0.40625 1.5625 -0.40625q1.0625 0 1.75 0.546875q0.6875 0.546875 0.875 1.53125l-1.078125 0.171875q-0.15625 -0.65625 -0.5625 -0.984375q-0.390625 -0.34375 -0.9375 -0.34375q-0.84375 0 -1.375 0.609375q-0.515625 0.59375 -0.515625 1.90625q0 1.3125 0.5 1.921875q0.515625 0.59375 1.328125 0.59375q0.65625 0 1.09375 -0.390625q0.4375 -0.40625 0.546875 -1.25zm6.359375 2.40625l0 -0.96875q-0.765625 1.109375 -2.09375 1.109375q-0.578125 0 -1.078125 -0.21875q-0.5 -0.21875 -0.75 -0.546875q-0.25 -0.34375 -0.34375 -0.828125q-0.0625 -0.328125 -0.0625 -1.046875l0 -4.0625l1.109375 0l0 3.640625q0 0.875 0.0625 1.171875q0.109375 0.4375 0.453125 0.6875q0.34375 0.25 0.84375 0.25q0.5 0 0.9375 -0.25q0.4375 -0.265625 0.609375 -0.703125q0.1875 -0.4375 0.1875 -1.28125l0 -3.515625l1.109375 0l0 6.5625l-0.984375 0zm2.7263184 0l0 -6.5625l1.0 0l0 1.0q0.375 -0.703125 0.703125 -0.921875q0.328125 -0.234375 0.71875 -0.234375q0.5625 0 1.140625 0.359375l-0.390625 1.03125q-0.40625 -0.234375 -0.8125 -0.234375q-0.359375 0 -0.65625 0.21875q-0.28125 0.21875 -0.40625 0.609375q-0.1875 0.59375 -0.1875 1.296875l0 3.4375l-1.109375 0zm4.21463 0l0 -6.5625l1.0 0l0 1.0q0.375 -0.703125 0.703125 -0.921875q0.328125 -0.234375 0.71875 -0.234375q0.5625 0 1.140625 0.359375l-0.390625 1.03125q-0.40625 -0.234375 -0.8125 -0.234375q-0.359375 0 -0.65625 0.21875q-0.28125 0.21875 -0.40625 0.609375q-0.1875 0.59375 -0.1875 1.296875l0 3.4375l-1.109375 0zm8.71463 -2.109375l1.140625 0.140625q-0.265625 1.0 -1.0 1.5625q-0.734375 0.546875 -1.875 0.546875q-1.4375 0 -2.28125 -0.875q-0.84375 -0.890625 -0.84375 -2.484375q0 -1.65625 0.84375 -2.578125q0.859375 -0.921875 2.21875 -0.921875q1.3125 0 2.140625 0.90625q0.84375 0.890625 0.84375 2.515625q0 0.109375 -0.015625 0.296875l-4.890625 0q0.0625 1.078125 0.609375 1.65625q0.5625 0.578125 1.375 0.578125q0.609375 0 1.046875 -0.3125q0.4375 -0.328125 0.6875 -1.03125zm-3.65625 -1.796875l3.671875 0q-0.078125 -0.828125 -0.421875 -1.25q-0.53125 -0.640625 -1.375 -0.640625q-0.765625 0 -1.296875 0.515625q-0.515625 0.515625 -0.578125 1.375zm6.195038 3.90625l0 -6.5625l1.0 0l0 0.9375q0.734375 -1.09375 2.09375 -1.09375q0.59375 0 1.09375 0.21875q0.5 0.21875 0.734375 0.5625q0.25 0.34375 0.359375 0.828125q0.0625 0.296875 0.0625 1.078125l0 4.03125l-1.109375 0l0 -3.984375q0 -0.6875 -0.140625 -1.015625q-0.125 -0.34375 -0.453125 -0.546875q-0.328125 -0.203125 -0.78125 -0.203125q-0.703125 0 -1.21875 0.453125q-0.515625 0.453125 -0.515625 1.71875l0 3.578125l-1.125 0zm11.320068 -2.40625l1.09375 0.140625q-0.171875 1.140625 -0.921875 1.78125q-0.734375 0.625 -1.796875 0.625q-1.359375 0 -2.171875 -0.875q-0.8125 -0.875 -0.8125 -2.515625q0 -1.0625 0.34375 -1.859375q0.359375 -0.8125 1.078125 -1.203125q0.71875 -0.40625 1.5625 -0.40625q1.0625 0 1.75 0.546875q0.6875 0.546875 0.875 1.53125l-1.078125 0.171875q-0.15625 -0.65625 -0.5625 -0.984375q-0.390625 -0.34375 -0.9375 -0.34375q-0.84375 0 -1.375 0.609375q-0.515625 0.59375 -0.515625 1.90625q0 1.3125 0.5 1.921875q0.515625 0.59375 1.328125 0.59375q0.65625 0 1.09375 -0.390625q0.4375 -0.40625 0.546875 -1.25zm2.0 4.9375l-0.125 -1.046875q0.375 0.09375 0.640625 0.09375q0.375 0 0.59375 -0.125q0.21875 -0.125 0.359375 -0.34375q0.109375 -0.15625 0.34375 -0.828125q0.03125 -0.09375 0.09375 -0.265625l-2.484375 -6.578125l1.203125 0l1.359375 3.796875q0.265625 0.71875 0.484375 1.53125q0.1875 -0.78125 0.453125 -1.5l1.40625 -3.828125l1.109375 0l-2.5 6.671875q-0.40625 1.078125 -0.625 1.484375q-0.296875 0.5625 -0.6875 0.8125q-0.375 0.25 -0.90625 0.25q-0.3125 0 -0.71875 -0.125z" fill-rule="nonzero"/><path fill="#000000" d="m297.2656 74.76157l0 -9.0625l1.8125 0l2.140625 6.421875q0.296875 0.890625 0.4375 1.34375q0.140625 -0.5 0.46875 -1.453125l2.171875 -6.3125l1.609375 0l0 9.0625l-1.15625 0l0 -7.578125l-2.625 7.578125l-1.078125 0l-2.625 -7.71875l0 7.71875l-1.15625 0zm16.292755 -5.328125l-5.984375 0l0 -1.03125l5.984375 0l0 1.03125zm0 2.75l-5.984375 0l0 -1.03125l5.984375 0l0 1.03125zm1.5316772 2.578125l0 -6.5625l1.0 0l0 0.9375q0.734375 -1.09375 2.09375 -1.09375q0.59375 0 1.09375 0.21875q0.5 0.21875 0.734375 0.5625q0.25 0.34375 0.359375 0.828125q0.0625 0.296875 0.0625 1.078125l0 4.03125l-1.109375 0l0 -3.984375q0 -0.6875 -0.140625 -1.015625q-0.125 -0.34375 -0.453125 -0.546875q-0.328125 -0.203125 -0.78125 -0.203125q-0.703125 0 -1.21875 0.453125q-0.515625 0.453125 -0.515625 1.71875l0 3.578125l-1.125 0zm11.351288 0l0 -0.96875q-0.765625 1.109375 -2.09375 1.109375q-0.578125 0 -1.078125 -0.21875q-0.5 -0.21875 -0.75 -0.546875q-0.25 -0.34375 -0.34375 -0.828125q-0.0625 -0.328125 -0.0625 -1.046875l0 -4.0625l1.109375 0l0 3.640625q0 0.875 0.0625 1.171875q0.109375 0.4375 0.453125 0.6875q0.34375 0.25 0.84375 0.25q0.5 0 0.9375 -0.25q0.4375 -0.265625 0.609375 -0.703125q0.1875 -0.4375 0.1875 -1.28125l0 -3.515625l1.109375 0l0 6.5625l-0.984375 0zm2.7263184 0l0 -6.5625l1.0 0l0 0.921875q0.3125 -0.484375 0.828125 -0.78125q0.515625 -0.296875 1.15625 -0.296875q0.734375 0 1.203125 0.3125q0.46875 0.296875 0.65625 0.84375q0.78125 -1.15625 2.03125 -1.15625q0.96875 0 1.5 0.546875q0.53125 0.546875 0.53125 1.671875l0 4.5l-1.109375 0l0 -4.140625q0 -0.65625 -0.109375 -0.953125q-0.109375 -0.296875 -0.390625 -0.46875q-0.28125 -0.1875 -0.671875 -0.1875q-0.6875 0 -1.15625 0.46875q-0.453125 0.453125 -0.453125 1.46875l0 3.8125l-1.109375 0l0 -4.265625q0 -0.734375 -0.28125 -1.109375q-0.265625 -0.375 -0.875 -0.375q-0.46875 0 -0.875 0.25q-0.390625 0.25 -0.578125 0.734375q-0.171875 0.46875 -0.171875 1.359375l0 3.40625l-1.125 0zm11.574005 0l-1.03125 0l0 -9.0625l1.109375 0l0 3.234375q0.703125 -0.890625 1.796875 -0.890625q0.609375 0 1.140625 0.25q0.546875 0.25 0.890625 0.6875q0.359375 0.4375 0.546875 1.0625q0.203125 0.625 0.203125 1.34375q0 1.6875 -0.84375 2.609375q-0.828125 0.90625 -1.984375 0.90625q-1.171875 0 -1.828125 -0.96875l0 0.828125zm-0.015625 -3.328125q0 1.171875 0.328125 1.703125q0.515625 0.859375 1.421875 0.859375q0.71875 0 1.25 -0.625q0.53125 -0.640625 0.53125 -1.890625q0 -1.296875 -0.515625 -1.90625q-0.5 -0.609375 -1.21875 -0.609375q-0.734375 0 -1.265625 0.640625q-0.53125 0.625 -0.53125 1.828125zm10.523163 1.21875l1.140625 0.140625q-0.265625 1.0 -1.0 1.5625q-0.734375 0.546875 -1.875 0.546875q-1.4375 0 -2.28125 -0.875q-0.84375 -0.890625 -0.84375 -2.484375q0 -1.65625 0.84375 -2.578125q0.859375 -0.921875 2.21875 -0.921875q1.3125 0 2.140625 0.90625q0.84375 0.890625 0.84375 2.515625q0 0.109375 -0.015625 0.296875l-4.890625 0q0.0625 1.078125 0.609375 1.65625q0.5625 0.578125 1.375 0.578125q0.609375 0 1.046875 -0.3125q0.4375 -0.328125 0.6875 -1.03125zm-3.65625 -1.796875l3.671875 0q-0.078125 -0.828125 -0.421875 -1.25q-0.53125 -0.640625 -1.375 -0.640625q-0.765625 0 -1.296875 0.515625q-0.515625 0.515625 -0.578125 1.375zm6.1950684 3.90625l0 -6.5625l1.0 0l0 1.0q0.375 -0.703125 0.703125 -0.921875q0.328125 -0.234375 0.71875 -0.234375q0.5625 0 1.140625 0.359375l-0.390625 1.03125q-0.40625 -0.234375 -0.8125 -0.234375q-0.359375 0 -0.65625 0.21875q-0.28125 0.21875 -0.40625 0.609375q-0.1875 0.59375 -0.1875 1.296875l0 3.4375l-1.109375 0zm7.3246765 -3.28125q0 -1.828125 1.015625 -2.703125q0.84375 -0.734375 2.0625 -0.734375q1.34375 0 2.203125 0.890625q0.859375 0.890625 0.859375 2.453125q0 1.265625 -0.375 2.0q-0.375 0.71875 -1.109375 1.125q-0.71875 0.390625 -1.578125 0.390625q-1.375 0 -2.234375 -0.875q-0.84375 -0.890625 -0.84375 -2.546875zm1.140625 0q0 1.265625 0.546875 1.890625q0.546875 0.625 1.390625 0.625q0.828125 0 1.375 -0.625q0.546875 -0.640625 0.546875 -1.921875q0 -1.21875 -0.5625 -1.84375q-0.546875 -0.640625 -1.359375 -0.640625q-0.84375 0 -1.390625 0.625q-0.546875 0.625 -0.546875 1.890625zm6.5700684 3.28125l0 -5.703125l-0.96875 0l0 -0.859375l0.96875 0l0 -0.703125q0 -0.65625 0.125 -0.984375q0.15625 -0.421875 0.5625 -0.6875q0.40625 -0.28125 1.140625 -0.28125q0.46875 0 1.03125 0.109375l-0.171875 0.984375q-0.34375 -0.0625 -0.640625 -0.0625q-0.515625 0 -0.734375 0.21875q-0.203125 0.203125 -0.203125 0.796875l0 0.609375l1.28125 0l0 0.859375l-1.28125 0l0 5.703125l-1.109375 0zm10.954498 2.515625l0 -3.21875q-0.25 0.375 -0.71875 0.609375q-0.46875 0.234375 -1.0 0.234375q-1.171875 0 -2.015625 -0.921875q-0.84375 -0.9375 -0.84375 -2.5625q0 -0.984375 0.34375 -1.765625q0.34375 -0.796875 1.0 -1.203125q0.65625 -0.40625 1.4375 -0.40625q1.21875 0 1.90625 1.03125l0 -0.875l1.0 0l0 9.078125l-1.109375 0zm-3.421875 -5.8125q0 1.265625 0.53125 1.90625q0.53125 0.625 1.265625 0.625q0.71875 0 1.21875 -0.59375q0.515625 -0.609375 0.515625 -1.84375q0 -1.3125 -0.546875 -1.96875q-0.53125 -0.65625 -1.265625 -0.65625q-0.71875 0 -1.21875 0.609375q-0.5 0.609375 -0.5 1.921875zm10.585663 3.296875l0 -0.96875q-0.765625 1.109375 -2.09375 1.109375q-0.578125 0 -1.078125 -0.21875q-0.5 -0.21875 -0.75 -0.546875q-0.25 -0.34375 -0.34375 -0.828125q-0.0625 -0.328125 -0.0625 -1.046875l0 -4.0625l1.109375 0l0 3.640625q0 0.875 0.0625 1.171875q0.109375 0.4375 0.453125 0.6875q0.34375 0.25 0.84375 0.25q0.5 0 0.9375 -0.25q0.4375 -0.265625 0.609375 -0.703125q0.1875 -0.4375 0.1875 -1.28125l0 -3.515625l1.109375 0l0 6.5625l-0.984375 0zm7.2263184 -2.109375l1.140625 0.140625q-0.265625 1.0 -1.0 1.5625q-0.734375 0.546875 -1.875 0.546875q-1.4375 0 -2.28125 -0.875q-0.84375 -0.890625 -0.84375 -2.484375q0 -1.65625 0.84375 -2.578125q0.859375 -0.921875 2.21875 -0.921875q1.3125 0 2.140625 0.90625q0.84375 0.890625 0.84375 2.515625q0 0.109375 -0.015625 0.296875l-4.890625 0q0.0625 1.078125 0.609375 1.65625q0.5625 0.578125 1.375 0.578125q0.609375 0 1.046875 -0.3125q0.4375 -0.328125 0.6875 -1.03125zm-3.65625 -1.796875l3.671875 0q-0.078125 -0.828125 -0.421875 -1.25q-0.53125 -0.640625 -1.375 -0.640625q-0.765625 0 -1.296875 0.515625q-0.515625 0.515625 -0.578125 1.375zm10.507538 3.90625l0 -0.96875q-0.765625 1.109375 -2.09375 1.109375q-0.578125 0 -1.078125 -0.21875q-0.5 -0.21875 -0.75 -0.546875q-0.25 -0.34375 -0.34375 -0.828125q-0.0625 -0.328125 -0.0625 -1.046875l0 -4.0625l1.109375 0l0 3.640625q0 0.875 0.0625 1.171875q0.109375 0.4375 0.453125 0.6875q0.34375 0.25 0.84375 0.25q0.5 0 0.9375 -0.25q0.4375 -0.265625 0.609375 -0.703125q0.1875 -0.4375 0.1875 -1.28125l0 -3.515625l1.109375 0l0 6.5625l-0.984375 0zm7.2263184 -2.109375l1.140625 0.140625q-0.265625 1.0 -1.0 1.5625q-0.734375 0.546875 -1.875 0.546875q-1.4375 0 -2.28125 -0.875q-0.84375 -0.890625 -0.84375 -2.484375q0 -1.65625 0.84375 -2.578125q0.859375 -0.921875 2.21875 -0.921875q1.3125 0 2.140625 0.90625q0.84375 0.890625 0.84375 2.515625q0 0.109375 -0.015625 0.296875l-4.890625 0q0.0625 1.078125 0.609375 1.65625q0.5625 0.578125 1.375 0.578125q0.609375 0 1.046875 -0.3125q0.4375 -0.328125 0.6875 -1.03125zm-3.65625 -1.796875l3.671875 0q-0.078125 -0.828125 -0.421875 -1.25q-0.53125 -0.640625 -1.375 -0.640625q-0.765625 0 -1.296875 0.515625q-0.515625 0.515625 -0.578125 1.375zm5.757538 1.953125l1.09375 -0.171875q0.09375 0.65625 0.515625 1.015625q0.421875 0.34375 1.1875 0.34375q0.765625 0 1.140625 -0.3125q0.375 -0.3125 0.375 -0.734375q0 -0.375 -0.328125 -0.59375q-0.234375 -0.140625 -1.140625 -0.375q-1.21875 -0.3125 -1.703125 -0.53125q-0.46875 -0.234375 -0.71875 -0.625q-0.234375 -0.40625 -0.234375 -0.875q0 -0.453125 0.1875 -0.8125q0.203125 -0.375 0.5625 -0.625q0.25 -0.203125 0.703125 -0.328125q0.453125 -0.140625 0.953125 -0.140625q0.78125 0 1.359375 0.234375q0.59375 0.21875 0.859375 0.609375q0.28125 0.375 0.390625 1.0l-1.09375 0.15625q-0.0625 -0.515625 -0.421875 -0.796875q-0.359375 -0.28125 -1.0 -0.28125q-0.765625 0 -1.09375 0.25q-0.328125 0.25 -0.328125 0.59375q0 0.21875 0.125 0.390625q0.140625 0.1875 0.4375 0.296875q0.15625 0.0625 0.96875 0.28125q1.1875 0.3125 1.65625 0.515625q0.46875 0.203125 0.734375 0.59375q0.265625 0.375 0.265625 0.953125q0 0.546875 -0.328125 1.046875q-0.328125 0.484375 -0.9375 0.75q-0.609375 0.265625 -1.390625 0.265625q-1.265625 0 -1.9375 -0.53125q-0.671875 -0.53125 -0.859375 -1.5625z" fill-rule="nonzero"/><path fill="#000000" fill-opacity="0.0" d="m198.80052 179.13124l0 50.45668" fill-rule="evenodd"/><path stroke="#000000" stroke-width="1.0" stroke-linejoin="round" stroke-linecap="butt" d="m198.80052 179.13124l0 44.45668" fill-rule="evenodd"/><path fill="#000000" stroke="#000000" stroke-width="1.0" stroke-linecap="butt" d="m197.14879 223.58792l1.6517334 4.538101l1.6517334 -4.538101z" fill-rule="evenodd"/></g></svg>